G04 #@! TF.GenerationSoftware,KiCad,Pcbnew,(5.1.4)-1*
G04 #@! TF.CreationDate,2020-05-09T12:16:14+02:00*
G04 #@! TF.ProjectId,neonpixel,6e656f6e-7069-4786-956c-2e6b69636164,rev?*
G04 #@! TF.SameCoordinates,Original*
G04 #@! TF.FileFunction,Legend,Top*
G04 #@! TF.FilePolarity,Positive*
%FSLAX46Y46*%
G04 Gerber Fmt 4.6, Leading zero omitted, Abs format (unit mm)*
G04 Created by KiCad (PCBNEW (5.1.4)-1) date 2020-05-09 12:16:14*
%MOMM*%
%LPD*%
G04 APERTURE LIST*
%ADD10C,0.120000*%
%ADD11C,0.127000*%
%ADD12C,0.150000*%
G04 APERTURE END LIST*
D10*
X152042325Y-58648600D02*
G75*
G03X152042325Y-58648600I-1242525J0D01*
G01*
D11*
X136716190Y-54629809D02*
X136716190Y-54121809D01*
X136837142Y-54121809D01*
X136909714Y-54146000D01*
X136958095Y-54194380D01*
X136982285Y-54242761D01*
X137006476Y-54339523D01*
X137006476Y-54412095D01*
X136982285Y-54508857D01*
X136958095Y-54557238D01*
X136909714Y-54605619D01*
X136837142Y-54629809D01*
X136716190Y-54629809D01*
X137224190Y-54629809D02*
X137224190Y-54291142D01*
X137224190Y-54121809D02*
X137200000Y-54146000D01*
X137224190Y-54170190D01*
X137248380Y-54146000D01*
X137224190Y-54121809D01*
X137224190Y-54170190D01*
X137466095Y-54291142D02*
X137466095Y-54629809D01*
X137466095Y-54339523D02*
X137490285Y-54315333D01*
X137538666Y-54291142D01*
X137611238Y-54291142D01*
X137659619Y-54315333D01*
X137683809Y-54363714D01*
X137683809Y-54629809D01*
X137006476Y-56181428D02*
X136982285Y-56205619D01*
X136909714Y-56229809D01*
X136861333Y-56229809D01*
X136788761Y-56205619D01*
X136740380Y-56157238D01*
X136716190Y-56108857D01*
X136692000Y-56012095D01*
X136692000Y-55939523D01*
X136716190Y-55842761D01*
X136740380Y-55794380D01*
X136788761Y-55746000D01*
X136861333Y-55721809D01*
X136909714Y-55721809D01*
X136982285Y-55746000D01*
X137006476Y-55770190D01*
X137224190Y-56229809D02*
X137224190Y-55891142D01*
X137224190Y-55721809D02*
X137200000Y-55746000D01*
X137224190Y-55770190D01*
X137248380Y-55746000D01*
X137224190Y-55721809D01*
X137224190Y-55770190D01*
X137466095Y-55891142D02*
X137466095Y-56229809D01*
X137466095Y-55939523D02*
X137490285Y-55915333D01*
X137538666Y-55891142D01*
X137611238Y-55891142D01*
X137659619Y-55915333D01*
X137683809Y-55963714D01*
X137683809Y-56229809D01*
X137127428Y-57421809D02*
X136885523Y-57421809D01*
X136861333Y-57663714D01*
X136885523Y-57639523D01*
X136933904Y-57615333D01*
X137054857Y-57615333D01*
X137103238Y-57639523D01*
X137127428Y-57663714D01*
X137151619Y-57712095D01*
X137151619Y-57833047D01*
X137127428Y-57881428D01*
X137103238Y-57905619D01*
X137054857Y-57929809D01*
X136933904Y-57929809D01*
X136885523Y-57905619D01*
X136861333Y-57881428D01*
X137320952Y-57591142D02*
X137441904Y-57929809D01*
X137562857Y-57591142D01*
D12*
X141440000Y-58386000D02*
X136360000Y-58386000D01*
X136360000Y-58386000D02*
X136360000Y-53814000D01*
X136360000Y-53814000D02*
X141440000Y-53814000D01*
X141440000Y-53814000D02*
X141440000Y-58386000D01*
X141440000Y-56862000D02*
X140932000Y-56862000D01*
X140932000Y-56862000D02*
X140932000Y-55592000D01*
X140932000Y-55592000D02*
X141440000Y-55592000D01*
X146700000Y-55400000D02*
X146700000Y-53800000D01*
X143700000Y-53800000D02*
X143700000Y-57000000D01*
X146700000Y-57000000D02*
X146700000Y-55400000D01*
X149400000Y-53000000D02*
X146700000Y-53000000D01*
X146500000Y-56800000D02*
X148000000Y-55100000D01*
X149500000Y-56800000D02*
X146500000Y-56800000D01*
X148000000Y-55100000D02*
X149500000Y-56800000D01*
X149400000Y-52900000D02*
X146700000Y-52900000D01*
D10*
X143280000Y-57500000D02*
X143280000Y-58700000D01*
X141520000Y-58700000D02*
X141520000Y-57500000D01*
X143250000Y-54800000D02*
X143250000Y-53800000D01*
X141550000Y-53800000D02*
X141550000Y-54800000D01*
D11*
X140529809Y-56708000D02*
X140021809Y-56708000D01*
X140021809Y-56514476D01*
X140046000Y-56466095D01*
X140070190Y-56441904D01*
X140118571Y-56417714D01*
X140191142Y-56417714D01*
X140239523Y-56441904D01*
X140263714Y-56466095D01*
X140287904Y-56514476D01*
X140287904Y-56708000D01*
X140529809Y-56200000D02*
X140021809Y-56200000D01*
X140481428Y-55667809D02*
X140505619Y-55692000D01*
X140529809Y-55764571D01*
X140529809Y-55812952D01*
X140505619Y-55885523D01*
X140457238Y-55933904D01*
X140408857Y-55958095D01*
X140312095Y-55982285D01*
X140239523Y-55982285D01*
X140142761Y-55958095D01*
X140094380Y-55933904D01*
X140046000Y-55885523D01*
X140021809Y-55812952D01*
X140021809Y-55764571D01*
X140046000Y-55692000D01*
X140070190Y-55667809D01*
X142729809Y-58184666D02*
X142487904Y-58354000D01*
X142729809Y-58474952D02*
X142221809Y-58474952D01*
X142221809Y-58281428D01*
X142246000Y-58233047D01*
X142270190Y-58208857D01*
X142318571Y-58184666D01*
X142391142Y-58184666D01*
X142439523Y-58208857D01*
X142463714Y-58233047D01*
X142487904Y-58281428D01*
X142487904Y-58474952D01*
X142270190Y-57991142D02*
X142246000Y-57966952D01*
X142221809Y-57918571D01*
X142221809Y-57797619D01*
X142246000Y-57749238D01*
X142270190Y-57725047D01*
X142318571Y-57700857D01*
X142366952Y-57700857D01*
X142439523Y-57725047D01*
X142729809Y-58015333D01*
X142729809Y-57700857D01*
X142681428Y-54384666D02*
X142705619Y-54408857D01*
X142729809Y-54481428D01*
X142729809Y-54529809D01*
X142705619Y-54602380D01*
X142657238Y-54650761D01*
X142608857Y-54674952D01*
X142512095Y-54699142D01*
X142439523Y-54699142D01*
X142342761Y-54674952D01*
X142294380Y-54650761D01*
X142246000Y-54602380D01*
X142221809Y-54529809D01*
X142221809Y-54481428D01*
X142246000Y-54408857D01*
X142270190Y-54384666D01*
X142729809Y-53900857D02*
X142729809Y-54191142D01*
X142729809Y-54046000D02*
X142221809Y-54046000D01*
X142294380Y-54094380D01*
X142342761Y-54142761D01*
X142366952Y-54191142D01*
M02*
