G04 #@! TF.GenerationSoftware,KiCad,Pcbnew,(5.1.4)-1*
G04 #@! TF.CreationDate,2020-05-09T12:16:14+02:00*
G04 #@! TF.ProjectId,neonpixel,6e656f6e-7069-4786-956c-2e6b69636164,rev?*
G04 #@! TF.SameCoordinates,Original*
G04 #@! TF.FileFunction,Soldermask,Bot*
G04 #@! TF.FilePolarity,Negative*
%FSLAX46Y46*%
G04 Gerber Fmt 4.6, Leading zero omitted, Abs format (unit mm)*
G04 Created by KiCad (PCBNEW (5.1.4)-1) date 2020-05-09 12:16:14*
%MOMM*%
%LPD*%
G04 APERTURE LIST*
%ADD10C,0.076200*%
%ADD11C,0.127000*%
%ADD12C,0.100000*%
G04 APERTURE END LIST*
D10*
X146346333Y-54399542D02*
X146346333Y-54907542D01*
X146346333Y-54423733D02*
X146293114Y-54399542D01*
X146186676Y-54399542D01*
X146133457Y-54423733D01*
X146106847Y-54447923D01*
X146080238Y-54496304D01*
X146080238Y-54641447D01*
X146106847Y-54689828D01*
X146133457Y-54714019D01*
X146186676Y-54738209D01*
X146293114Y-54738209D01*
X146346333Y-54714019D01*
X145840752Y-54738209D02*
X145840752Y-54399542D01*
X145840752Y-54230209D02*
X145867361Y-54254400D01*
X145840752Y-54278590D01*
X145814142Y-54254400D01*
X145840752Y-54230209D01*
X145840752Y-54278590D01*
X145361780Y-54714019D02*
X145415000Y-54738209D01*
X145521438Y-54738209D01*
X145574657Y-54714019D01*
X145601266Y-54665638D01*
X145601266Y-54472114D01*
X145574657Y-54423733D01*
X145521438Y-54399542D01*
X145415000Y-54399542D01*
X145361780Y-54423733D01*
X145335171Y-54472114D01*
X145335171Y-54520495D01*
X145601266Y-54568876D01*
X145095685Y-54738209D02*
X145095685Y-54399542D01*
X145095685Y-54496304D02*
X145069076Y-54447923D01*
X145042466Y-54423733D01*
X144989247Y-54399542D01*
X144936028Y-54399542D01*
X144749761Y-54738209D02*
X144749761Y-54399542D01*
X144749761Y-54496304D02*
X144723152Y-54447923D01*
X144696542Y-54423733D01*
X144643323Y-54399542D01*
X144590104Y-54399542D01*
X144190961Y-54714019D02*
X144244180Y-54738209D01*
X144350619Y-54738209D01*
X144403838Y-54714019D01*
X144430447Y-54665638D01*
X144430447Y-54472114D01*
X144403838Y-54423733D01*
X144350619Y-54399542D01*
X144244180Y-54399542D01*
X144190961Y-54423733D01*
X144164352Y-54472114D01*
X144164352Y-54520495D01*
X144430447Y-54568876D01*
X143499114Y-54738209D02*
X143499114Y-54399542D01*
X143499114Y-54447923D02*
X143472504Y-54423733D01*
X143419285Y-54399542D01*
X143339457Y-54399542D01*
X143286238Y-54423733D01*
X143259628Y-54472114D01*
X143259628Y-54738209D01*
X143259628Y-54472114D02*
X143233019Y-54423733D01*
X143179800Y-54399542D01*
X143099971Y-54399542D01*
X143046752Y-54423733D01*
X143020142Y-54472114D01*
X143020142Y-54738209D01*
X142514561Y-54399542D02*
X142514561Y-54738209D01*
X142754047Y-54399542D02*
X142754047Y-54665638D01*
X142727438Y-54714019D01*
X142674219Y-54738209D01*
X142594390Y-54738209D01*
X142541171Y-54714019D01*
X142514561Y-54689828D01*
X142328295Y-54399542D02*
X142115419Y-54399542D01*
X142248466Y-54230209D02*
X142248466Y-54665638D01*
X142221857Y-54714019D01*
X142168638Y-54738209D01*
X142115419Y-54738209D01*
X141929152Y-54738209D02*
X141929152Y-54230209D01*
X141689666Y-54738209D02*
X141689666Y-54472114D01*
X141716276Y-54423733D01*
X141769495Y-54399542D01*
X141849323Y-54399542D01*
X141902542Y-54423733D01*
X141929152Y-54447923D01*
D11*
X146435838Y-53996166D02*
X146435838Y-53107166D01*
X145884295Y-53996166D01*
X145884295Y-53107166D01*
X145056980Y-53953833D02*
X145148904Y-53996166D01*
X145332752Y-53996166D01*
X145424676Y-53953833D01*
X145470638Y-53869166D01*
X145470638Y-53530500D01*
X145424676Y-53445833D01*
X145332752Y-53403500D01*
X145148904Y-53403500D01*
X145056980Y-53445833D01*
X145011019Y-53530500D01*
X145011019Y-53615166D01*
X145470638Y-53699833D01*
X144459476Y-53996166D02*
X144551400Y-53953833D01*
X144597361Y-53911500D01*
X144643323Y-53826833D01*
X144643323Y-53572833D01*
X144597361Y-53488166D01*
X144551400Y-53445833D01*
X144459476Y-53403500D01*
X144321590Y-53403500D01*
X144229666Y-53445833D01*
X144183704Y-53488166D01*
X144137742Y-53572833D01*
X144137742Y-53826833D01*
X144183704Y-53911500D01*
X144229666Y-53953833D01*
X144321590Y-53996166D01*
X144459476Y-53996166D01*
X143724085Y-53403500D02*
X143724085Y-53996166D01*
X143724085Y-53488166D02*
X143678123Y-53445833D01*
X143586200Y-53403500D01*
X143448314Y-53403500D01*
X143356390Y-53445833D01*
X143310428Y-53530500D01*
X143310428Y-53996166D01*
X142850809Y-53996166D02*
X142850809Y-53107166D01*
X142483114Y-53107166D01*
X142391190Y-53149500D01*
X142345228Y-53191833D01*
X142299266Y-53276500D01*
X142299266Y-53403500D01*
X142345228Y-53488166D01*
X142391190Y-53530500D01*
X142483114Y-53572833D01*
X142850809Y-53572833D01*
X141885609Y-53996166D02*
X141885609Y-53403500D01*
X141885609Y-53107166D02*
X141931571Y-53149500D01*
X141885609Y-53191833D01*
X141839647Y-53149500D01*
X141885609Y-53107166D01*
X141885609Y-53191833D01*
X141517914Y-53996166D02*
X141012333Y-53403500D01*
X141517914Y-53403500D02*
X141012333Y-53996166D01*
X140276942Y-53953833D02*
X140368866Y-53996166D01*
X140552714Y-53996166D01*
X140644638Y-53953833D01*
X140690600Y-53869166D01*
X140690600Y-53530500D01*
X140644638Y-53445833D01*
X140552714Y-53403500D01*
X140368866Y-53403500D01*
X140276942Y-53445833D01*
X140230980Y-53530500D01*
X140230980Y-53615166D01*
X140690600Y-53699833D01*
X139679438Y-53996166D02*
X139771361Y-53953833D01*
X139817323Y-53869166D01*
X139817323Y-53107166D01*
D12*
G36*
X151106508Y-57629582D02*
G01*
X151297741Y-57708793D01*
X151469847Y-57823791D01*
X151616209Y-57970153D01*
X151731207Y-58142259D01*
X151810418Y-58333492D01*
X151850800Y-58536505D01*
X151850800Y-58743495D01*
X151810418Y-58946508D01*
X151731207Y-59137741D01*
X151616209Y-59309847D01*
X151469847Y-59456209D01*
X151297741Y-59571207D01*
X151106508Y-59650418D01*
X150903495Y-59690800D01*
X150696505Y-59690800D01*
X150493492Y-59650418D01*
X150302259Y-59571207D01*
X150130153Y-59456209D01*
X149983791Y-59309847D01*
X149868793Y-59137741D01*
X149789582Y-58946508D01*
X149749200Y-58743495D01*
X149749200Y-58536505D01*
X149789582Y-58333492D01*
X149868793Y-58142259D01*
X149983791Y-57970153D01*
X150130153Y-57823791D01*
X150302259Y-57708793D01*
X150493492Y-57629582D01*
X150696505Y-57589200D01*
X150903495Y-57589200D01*
X151106508Y-57629582D01*
X151106508Y-57629582D01*
G37*
G36*
X136050800Y-59380800D02*
G01*
X132949200Y-59380800D01*
X132949200Y-57779200D01*
X136050800Y-57779200D01*
X136050800Y-59380800D01*
X136050800Y-59380800D01*
G37*
G36*
X147450800Y-59175800D02*
G01*
X146349200Y-59175800D01*
X146349200Y-57824200D01*
X147450800Y-57824200D01*
X147450800Y-59175800D01*
X147450800Y-59175800D01*
G37*
G36*
X149450800Y-59175800D02*
G01*
X148349200Y-59175800D01*
X148349200Y-57824200D01*
X149450800Y-57824200D01*
X149450800Y-59175800D01*
X149450800Y-59175800D01*
G37*
G36*
X143400800Y-58450800D02*
G01*
X142399200Y-58450800D01*
X142399200Y-57549200D01*
X143400800Y-57549200D01*
X143400800Y-58450800D01*
X143400800Y-58450800D01*
G37*
G36*
X145400800Y-57500800D02*
G01*
X144399200Y-57500800D01*
X144399200Y-56599200D01*
X145400800Y-56599200D01*
X145400800Y-57500800D01*
X145400800Y-57500800D01*
G37*
G36*
X136050800Y-56840800D02*
G01*
X132949200Y-56840800D01*
X132949200Y-55239200D01*
X136050800Y-55239200D01*
X136050800Y-56840800D01*
X136050800Y-56840800D01*
G37*
G36*
X143400800Y-56550800D02*
G01*
X142399200Y-56550800D01*
X142399200Y-55649200D01*
X143400800Y-55649200D01*
X143400800Y-56550800D01*
X143400800Y-56550800D01*
G37*
G36*
X151106508Y-52549582D02*
G01*
X151297741Y-52628793D01*
X151469847Y-52743791D01*
X151616209Y-52890153D01*
X151731207Y-53062259D01*
X151810418Y-53253492D01*
X151850800Y-53456505D01*
X151850800Y-53663495D01*
X151810418Y-53866508D01*
X151731207Y-54057741D01*
X151616209Y-54229847D01*
X151469847Y-54376209D01*
X151297741Y-54491207D01*
X151106508Y-54570418D01*
X150903495Y-54610800D01*
X150696505Y-54610800D01*
X150493492Y-54570418D01*
X150302259Y-54491207D01*
X150130153Y-54376209D01*
X149983791Y-54229847D01*
X149868793Y-54057741D01*
X149789582Y-53866508D01*
X149749200Y-53663495D01*
X149749200Y-53456505D01*
X149789582Y-53253492D01*
X149868793Y-53062259D01*
X149983791Y-52890153D01*
X150130153Y-52743791D01*
X150302259Y-52628793D01*
X150493492Y-52549582D01*
X150696505Y-52509200D01*
X150903495Y-52509200D01*
X151106508Y-52549582D01*
X151106508Y-52549582D01*
G37*
G36*
X138633585Y-53029974D02*
G01*
X138779322Y-53090339D01*
X138910482Y-53177978D01*
X139022022Y-53289518D01*
X139109661Y-53420678D01*
X139170026Y-53566415D01*
X139200800Y-53721128D01*
X139200800Y-53878872D01*
X139170026Y-54033585D01*
X139109661Y-54179322D01*
X139022022Y-54310482D01*
X138910482Y-54422022D01*
X138779322Y-54509661D01*
X138633585Y-54570026D01*
X138478872Y-54600800D01*
X138321128Y-54600800D01*
X138166415Y-54570026D01*
X138020678Y-54509661D01*
X137889518Y-54422022D01*
X137777978Y-54310482D01*
X137690339Y-54179322D01*
X137629974Y-54033585D01*
X137599200Y-53878872D01*
X137599200Y-53721128D01*
X137629974Y-53566415D01*
X137690339Y-53420678D01*
X137777978Y-53289518D01*
X137889518Y-53177978D01*
X138020678Y-53090339D01*
X138166415Y-53029974D01*
X138321128Y-52999200D01*
X138478872Y-52999200D01*
X138633585Y-53029974D01*
X138633585Y-53029974D01*
G37*
G36*
X149600800Y-54500800D02*
G01*
X148799200Y-54500800D01*
X148799200Y-53099200D01*
X149600800Y-53099200D01*
X149600800Y-54500800D01*
X149600800Y-54500800D01*
G37*
G36*
X147700800Y-54500800D02*
G01*
X146899200Y-54500800D01*
X146899200Y-53099200D01*
X147700800Y-53099200D01*
X147700800Y-54500800D01*
X147700800Y-54500800D01*
G37*
G36*
X136050800Y-54300800D02*
G01*
X132949200Y-54300800D01*
X132949200Y-52699200D01*
X136050800Y-52699200D01*
X136050800Y-54300800D01*
X136050800Y-54300800D01*
G37*
M02*
