G04 #@! TF.GenerationSoftware,KiCad,Pcbnew,(5.1.4)-1*
G04 #@! TF.CreationDate,2020-05-09T12:16:14+02:00*
G04 #@! TF.ProjectId,neonpixel,6e656f6e-7069-4786-956c-2e6b69636164,rev?*
G04 #@! TF.SameCoordinates,Original*
G04 #@! TF.FileFunction,Legend,Bot*
G04 #@! TF.FilePolarity,Positive*
%FSLAX46Y46*%
G04 Gerber Fmt 4.6, Leading zero omitted, Abs format (unit mm)*
G04 Created by KiCad (PCBNEW (5.1.4)-1) date 2020-05-09 12:16:14*
%MOMM*%
%LPD*%
G04 APERTURE LIST*
%ADD10C,0.120000*%
%ADD11C,0.127000*%
G04 APERTURE END LIST*
D10*
X152046730Y-58648600D02*
G75*
G03X152046730Y-58648600I-1246930J0D01*
G01*
D11*
X139628952Y-54721809D02*
X139459619Y-55229809D01*
X139290285Y-54721809D01*
X139120952Y-54891142D02*
X139120952Y-55399142D01*
X139120952Y-54915333D02*
X139072571Y-54891142D01*
X138975809Y-54891142D01*
X138927428Y-54915333D01*
X138903238Y-54939523D01*
X138879047Y-54987904D01*
X138879047Y-55133047D01*
X138903238Y-55181428D01*
X138927428Y-55205619D01*
X138975809Y-55229809D01*
X139072571Y-55229809D01*
X139120952Y-55205619D01*
X138661333Y-54891142D02*
X138661333Y-55399142D01*
X138661333Y-54915333D02*
X138612952Y-54891142D01*
X138516190Y-54891142D01*
X138467809Y-54915333D01*
X138443619Y-54939523D01*
X138419428Y-54987904D01*
X138419428Y-55133047D01*
X138443619Y-55181428D01*
X138467809Y-55205619D01*
X138516190Y-55229809D01*
X138612952Y-55229809D01*
X138661333Y-55205619D01*
X137547523Y-59281428D02*
X137571714Y-59305619D01*
X137644285Y-59329809D01*
X137692666Y-59329809D01*
X137765238Y-59305619D01*
X137813619Y-59257238D01*
X137837809Y-59208857D01*
X137862000Y-59112095D01*
X137862000Y-59039523D01*
X137837809Y-58942761D01*
X137813619Y-58894380D01*
X137765238Y-58846000D01*
X137692666Y-58821809D01*
X137644285Y-58821809D01*
X137571714Y-58846000D01*
X137547523Y-58870190D01*
X137257238Y-59329809D02*
X137305619Y-59305619D01*
X137329809Y-59281428D01*
X137354000Y-59233047D01*
X137354000Y-59087904D01*
X137329809Y-59039523D01*
X137305619Y-59015333D01*
X137257238Y-58991142D01*
X137184666Y-58991142D01*
X137136285Y-59015333D01*
X137112095Y-59039523D01*
X137087904Y-59087904D01*
X137087904Y-59233047D01*
X137112095Y-59281428D01*
X137136285Y-59305619D01*
X137184666Y-59329809D01*
X137257238Y-59329809D01*
X136652476Y-58991142D02*
X136652476Y-59329809D01*
X136870190Y-58991142D02*
X136870190Y-59257238D01*
X136846000Y-59305619D01*
X136797619Y-59329809D01*
X136725047Y-59329809D01*
X136676666Y-59305619D01*
X136652476Y-59281428D01*
X136483142Y-58991142D02*
X136289619Y-58991142D01*
X136410571Y-58821809D02*
X136410571Y-59257238D01*
X136386380Y-59305619D01*
X136338000Y-59329809D01*
X136289619Y-59329809D01*
X137837809Y-56729809D02*
X137837809Y-56221809D01*
X137716857Y-56221809D01*
X137644285Y-56246000D01*
X137595904Y-56294380D01*
X137571714Y-56342761D01*
X137547523Y-56439523D01*
X137547523Y-56512095D01*
X137571714Y-56608857D01*
X137595904Y-56657238D01*
X137644285Y-56705619D01*
X137716857Y-56729809D01*
X137837809Y-56729809D01*
X137257238Y-56729809D02*
X137305619Y-56705619D01*
X137329809Y-56681428D01*
X137354000Y-56633047D01*
X137354000Y-56487904D01*
X137329809Y-56439523D01*
X137305619Y-56415333D01*
X137257238Y-56391142D01*
X137184666Y-56391142D01*
X137136285Y-56415333D01*
X137112095Y-56439523D01*
X137087904Y-56487904D01*
X137087904Y-56633047D01*
X137112095Y-56681428D01*
X137136285Y-56705619D01*
X137184666Y-56729809D01*
X137257238Y-56729809D01*
X136652476Y-56391142D02*
X136652476Y-56729809D01*
X136870190Y-56391142D02*
X136870190Y-56657238D01*
X136846000Y-56705619D01*
X136797619Y-56729809D01*
X136725047Y-56729809D01*
X136676666Y-56705619D01*
X136652476Y-56681428D01*
X136483142Y-56391142D02*
X136289619Y-56391142D01*
X136410571Y-56221809D02*
X136410571Y-56657238D01*
X136386380Y-56705619D01*
X136338000Y-56729809D01*
X136289619Y-56729809D01*
X137287047Y-54146000D02*
X137335428Y-54121809D01*
X137408000Y-54121809D01*
X137480571Y-54146000D01*
X137528952Y-54194380D01*
X137553142Y-54242761D01*
X137577333Y-54339523D01*
X137577333Y-54412095D01*
X137553142Y-54508857D01*
X137528952Y-54557238D01*
X137480571Y-54605619D01*
X137408000Y-54629809D01*
X137359619Y-54629809D01*
X137287047Y-54605619D01*
X137262857Y-54581428D01*
X137262857Y-54412095D01*
X137359619Y-54412095D01*
X137045142Y-54629809D02*
X137045142Y-54121809D01*
X136754857Y-54629809D01*
X136754857Y-54121809D01*
X136512952Y-54629809D02*
X136512952Y-54121809D01*
X136392000Y-54121809D01*
X136319428Y-54146000D01*
X136271047Y-54194380D01*
X136246857Y-54242761D01*
X136222666Y-54339523D01*
X136222666Y-54412095D01*
X136246857Y-54508857D01*
X136271047Y-54557238D01*
X136319428Y-54605619D01*
X136392000Y-54629809D01*
X136512952Y-54629809D01*
D10*
X147650000Y-54680000D02*
X148850000Y-54680000D01*
X148850000Y-52920000D02*
X147650000Y-52920000D01*
X144660000Y-55470000D02*
X144660000Y-56400000D01*
X144660000Y-58630000D02*
X144660000Y-57700000D01*
X144660000Y-58630000D02*
X142500000Y-58630000D01*
X144660000Y-55470000D02*
X143200000Y-55470000D01*
X147400000Y-57650000D02*
X148400000Y-57650000D01*
X148400000Y-59350000D02*
X147400000Y-59350000D01*
D11*
X148484666Y-54029809D02*
X148654000Y-53787904D01*
X148774952Y-54029809D02*
X148774952Y-53521809D01*
X148581428Y-53521809D01*
X148533047Y-53546000D01*
X148508857Y-53570190D01*
X148484666Y-53618571D01*
X148484666Y-53691142D01*
X148508857Y-53739523D01*
X148533047Y-53763714D01*
X148581428Y-53787904D01*
X148774952Y-53787904D01*
X148000857Y-54029809D02*
X148291142Y-54029809D01*
X148146000Y-54029809D02*
X148146000Y-53521809D01*
X148194380Y-53594380D01*
X148242761Y-53642761D01*
X148291142Y-53666952D01*
X145548380Y-55978190D02*
X145596761Y-55954000D01*
X145645142Y-55905619D01*
X145717714Y-55833047D01*
X145766095Y-55808857D01*
X145814476Y-55808857D01*
X145790285Y-55929809D02*
X145838666Y-55905619D01*
X145887047Y-55857238D01*
X145911238Y-55760476D01*
X145911238Y-55591142D01*
X145887047Y-55494380D01*
X145838666Y-55446000D01*
X145790285Y-55421809D01*
X145693523Y-55421809D01*
X145645142Y-55446000D01*
X145596761Y-55494380D01*
X145572571Y-55591142D01*
X145572571Y-55760476D01*
X145596761Y-55857238D01*
X145645142Y-55905619D01*
X145693523Y-55929809D01*
X145790285Y-55929809D01*
X145088761Y-55929809D02*
X145379047Y-55929809D01*
X145233904Y-55929809D02*
X145233904Y-55421809D01*
X145282285Y-55494380D01*
X145330666Y-55542761D01*
X145379047Y-55566952D01*
X148084666Y-57081428D02*
X148108857Y-57105619D01*
X148181428Y-57129809D01*
X148229809Y-57129809D01*
X148302380Y-57105619D01*
X148350761Y-57057238D01*
X148374952Y-57008857D01*
X148399142Y-56912095D01*
X148399142Y-56839523D01*
X148374952Y-56742761D01*
X148350761Y-56694380D01*
X148302380Y-56646000D01*
X148229809Y-56621809D01*
X148181428Y-56621809D01*
X148108857Y-56646000D01*
X148084666Y-56670190D01*
X147891142Y-56670190D02*
X147866952Y-56646000D01*
X147818571Y-56621809D01*
X147697619Y-56621809D01*
X147649238Y-56646000D01*
X147625047Y-56670190D01*
X147600857Y-56718571D01*
X147600857Y-56766952D01*
X147625047Y-56839523D01*
X147915333Y-57129809D01*
X147600857Y-57129809D01*
M02*
