G04 #@! TF.GenerationSoftware,KiCad,Pcbnew,(5.1.4)-1*
G04 #@! TF.CreationDate,2020-05-09T12:16:14+02:00*
G04 #@! TF.ProjectId,neonpixel,6e656f6e-7069-4786-956c-2e6b69636164,rev?*
G04 #@! TF.SameCoordinates,Original*
G04 #@! TF.FileFunction,Soldermask,Top*
G04 #@! TF.FilePolarity,Negative*
%FSLAX46Y46*%
G04 Gerber Fmt 4.6, Leading zero omitted, Abs format (unit mm)*
G04 Created by KiCad (PCBNEW (5.1.4)-1) date 2020-05-09 12:16:14*
%MOMM*%
%LPD*%
G04 APERTURE LIST*
%ADD10C,0.100000*%
G04 APERTURE END LIST*
D10*
G36*
X151106508Y-57629582D02*
G01*
X151297741Y-57708793D01*
X151469847Y-57823791D01*
X151616209Y-57970153D01*
X151731207Y-58142259D01*
X151810418Y-58333492D01*
X151850800Y-58536505D01*
X151850800Y-58743495D01*
X151810418Y-58946508D01*
X151731207Y-59137741D01*
X151616209Y-59309847D01*
X151469847Y-59456209D01*
X151297741Y-59571207D01*
X151106508Y-59650418D01*
X150903495Y-59690800D01*
X150696505Y-59690800D01*
X150493492Y-59650418D01*
X150302259Y-59571207D01*
X150130153Y-59456209D01*
X149983791Y-59309847D01*
X149868793Y-59137741D01*
X149789582Y-58946508D01*
X149749200Y-58743495D01*
X149749200Y-58536505D01*
X149789582Y-58333492D01*
X149868793Y-58142259D01*
X149983791Y-57970153D01*
X150130153Y-57823791D01*
X150302259Y-57708793D01*
X150493492Y-57629582D01*
X150696505Y-57589200D01*
X150903495Y-57589200D01*
X151106508Y-57629582D01*
X151106508Y-57629582D01*
G37*
G36*
X141205800Y-59522300D02*
G01*
X140404200Y-59522300D01*
X140404200Y-58277700D01*
X141205800Y-58277700D01*
X141205800Y-59522300D01*
X141205800Y-59522300D01*
G37*
G36*
X137395800Y-59522300D02*
G01*
X136594200Y-59522300D01*
X136594200Y-58277700D01*
X137395800Y-58277700D01*
X137395800Y-59522300D01*
X137395800Y-59522300D01*
G37*
G36*
X138665800Y-59522300D02*
G01*
X137864200Y-59522300D01*
X137864200Y-58277700D01*
X138665800Y-58277700D01*
X138665800Y-59522300D01*
X138665800Y-59522300D01*
G37*
G36*
X139935800Y-59522300D02*
G01*
X139134200Y-59522300D01*
X139134200Y-58277700D01*
X139935800Y-58277700D01*
X139935800Y-59522300D01*
X139935800Y-59522300D01*
G37*
G36*
X143100800Y-59450800D02*
G01*
X141699200Y-59450800D01*
X141699200Y-58649200D01*
X143100800Y-58649200D01*
X143100800Y-59450800D01*
X143100800Y-59450800D01*
G37*
G36*
X136050800Y-59380800D02*
G01*
X132949200Y-59380800D01*
X132949200Y-57779200D01*
X136050800Y-57779200D01*
X136050800Y-59380800D01*
X136050800Y-59380800D01*
G37*
G36*
X148800800Y-58100800D02*
G01*
X147199200Y-58100800D01*
X147199200Y-56499200D01*
X148800800Y-56499200D01*
X148800800Y-58100800D01*
X148800800Y-58100800D01*
G37*
G36*
X146500800Y-58050800D02*
G01*
X143899200Y-58050800D01*
X143899200Y-55949200D01*
X146500800Y-55949200D01*
X146500800Y-58050800D01*
X146500800Y-58050800D01*
G37*
G36*
X143100800Y-57550800D02*
G01*
X141699200Y-57550800D01*
X141699200Y-56749200D01*
X143100800Y-56749200D01*
X143100800Y-57550800D01*
X143100800Y-57550800D01*
G37*
G36*
X136050800Y-56840800D02*
G01*
X132949200Y-56840800D01*
X132949200Y-55239200D01*
X136050800Y-55239200D01*
X136050800Y-56840800D01*
X136050800Y-56840800D01*
G37*
G36*
X143075800Y-55850800D02*
G01*
X141724200Y-55850800D01*
X141724200Y-54749200D01*
X143075800Y-54749200D01*
X143075800Y-55850800D01*
X143075800Y-55850800D01*
G37*
G36*
X148800800Y-55100800D02*
G01*
X147199200Y-55100800D01*
X147199200Y-53499200D01*
X148800800Y-53499200D01*
X148800800Y-55100800D01*
X148800800Y-55100800D01*
G37*
G36*
X146500800Y-54850800D02*
G01*
X143899200Y-54850800D01*
X143899200Y-52749200D01*
X146500800Y-52749200D01*
X146500800Y-54850800D01*
X146500800Y-54850800D01*
G37*
G36*
X151106508Y-52549582D02*
G01*
X151297741Y-52628793D01*
X151469847Y-52743791D01*
X151616209Y-52890153D01*
X151731207Y-53062259D01*
X151810418Y-53253492D01*
X151850800Y-53456505D01*
X151850800Y-53663495D01*
X151810418Y-53866508D01*
X151731207Y-54057741D01*
X151616209Y-54229847D01*
X151469847Y-54376209D01*
X151297741Y-54491207D01*
X151106508Y-54570418D01*
X150903495Y-54610800D01*
X150696505Y-54610800D01*
X150493492Y-54570418D01*
X150302259Y-54491207D01*
X150130153Y-54376209D01*
X149983791Y-54229847D01*
X149868793Y-54057741D01*
X149789582Y-53866508D01*
X149749200Y-53663495D01*
X149749200Y-53456505D01*
X149789582Y-53253492D01*
X149868793Y-53062259D01*
X149983791Y-52890153D01*
X150130153Y-52743791D01*
X150302259Y-52628793D01*
X150493492Y-52549582D01*
X150696505Y-52509200D01*
X150903495Y-52509200D01*
X151106508Y-52549582D01*
X151106508Y-52549582D01*
G37*
G36*
X136050800Y-54300800D02*
G01*
X132949200Y-54300800D01*
X132949200Y-52699200D01*
X136050800Y-52699200D01*
X136050800Y-54300800D01*
X136050800Y-54300800D01*
G37*
G36*
X141205800Y-53922300D02*
G01*
X140404200Y-53922300D01*
X140404200Y-52677700D01*
X141205800Y-52677700D01*
X141205800Y-53922300D01*
X141205800Y-53922300D01*
G37*
G36*
X138665800Y-53922300D02*
G01*
X137864200Y-53922300D01*
X137864200Y-52677700D01*
X138665800Y-52677700D01*
X138665800Y-53922300D01*
X138665800Y-53922300D01*
G37*
G36*
X139935800Y-53922300D02*
G01*
X139134200Y-53922300D01*
X139134200Y-52677700D01*
X139935800Y-52677700D01*
X139935800Y-53922300D01*
X139935800Y-53922300D01*
G37*
G36*
X137395800Y-53922300D02*
G01*
X136594200Y-53922300D01*
X136594200Y-52677700D01*
X137395800Y-52677700D01*
X137395800Y-53922300D01*
X137395800Y-53922300D01*
G37*
G36*
X143075800Y-53850800D02*
G01*
X141724200Y-53850800D01*
X141724200Y-52749200D01*
X143075800Y-52749200D01*
X143075800Y-53850800D01*
X143075800Y-53850800D01*
G37*
M02*
