G04 #@! TF.GenerationSoftware,KiCad,Pcbnew,(5.1.4)-1*
G04 #@! TF.CreationDate,2020-05-09T12:16:14+02:00*
G04 #@! TF.ProjectId,neonpixel,6e656f6e-7069-4786-956c-2e6b69636164,rev?*
G04 #@! TF.SameCoordinates,Original*
G04 #@! TF.FileFunction,Copper,L1,Top*
G04 #@! TF.FilePolarity,Positive*
%FSLAX46Y46*%
G04 Gerber Fmt 4.6, Leading zero omitted, Abs format (unit mm)*
G04 Created by KiCad (PCBNEW (5.1.4)-1) date 2020-05-09 12:16:14*
%MOMM*%
%LPD*%
G04 APERTURE LIST*
%ADD10R,0.700000X1.143000*%
%ADD11C,2.000000*%
%ADD12R,2.500000X2.000000*%
%ADD13R,1.500000X1.500000*%
%ADD14R,3.000000X1.500000*%
%ADD15R,1.300000X0.700000*%
%ADD16R,1.250000X1.000000*%
%ADD17C,0.685800*%
%ADD18C,0.254000*%
%ADD19C,0.508000*%
%ADD20C,0.203200*%
G04 APERTURE END LIST*
D10*
X140805000Y-58900000D03*
X139535000Y-58900000D03*
X138265000Y-58900000D03*
X136995000Y-58900000D03*
X136995000Y-53300000D03*
X138265000Y-53300000D03*
X139535000Y-53300000D03*
X140805000Y-53300000D03*
D11*
X150800000Y-53560000D03*
X150800000Y-58640000D03*
D12*
X145200000Y-53800000D03*
X145200000Y-57000000D03*
D13*
X148000000Y-57300000D03*
X148000000Y-54300000D03*
D14*
X134500000Y-53500000D03*
X134500000Y-58580000D03*
X134500000Y-56040000D03*
D15*
X142400000Y-59050000D03*
X142400000Y-57150000D03*
D16*
X142400000Y-53300000D03*
X142400000Y-55300000D03*
D17*
X146900000Y-58800000D03*
X140800000Y-58900000D03*
X144200000Y-58800000D03*
X145500000Y-58800000D03*
X142400000Y-56400000D03*
X141478000Y-55270400D03*
X143306800Y-55219600D03*
X147600000Y-55200000D03*
X148400000Y-55200000D03*
X144400000Y-57000000D03*
X145400000Y-57000000D03*
X139500000Y-58900000D03*
X139598400Y-57251600D03*
X137200000Y-53300000D03*
X142400000Y-58900000D03*
X140157200Y-55800000D03*
D18*
X140805000Y-52925000D02*
X140825000Y-52925000D01*
X141200000Y-53300000D02*
X142400000Y-53300000D01*
X140825000Y-52925000D02*
X141200000Y-53300000D01*
D19*
X144500000Y-53300000D02*
X145000000Y-53800000D01*
X142400000Y-53300000D02*
X144500000Y-53300000D01*
X135437022Y-58580000D02*
X134500000Y-58580000D01*
X142400000Y-53300000D02*
X141267000Y-53300000D01*
X141267000Y-53300000D02*
X140805000Y-53300000D01*
X135250000Y-58580000D02*
X134500000Y-58580000D01*
X135425200Y-58580000D02*
X134500000Y-58580000D01*
X135526800Y-58580000D02*
X134500000Y-58580000D01*
X140805000Y-54063800D02*
X140131790Y-54737010D01*
X140805000Y-53300000D02*
X140805000Y-54063800D01*
X140131790Y-54737010D02*
X139725390Y-54737010D01*
X139725390Y-54737010D02*
X137058400Y-57404000D01*
X137058400Y-57404000D02*
X136702800Y-57404000D01*
X136702800Y-57404000D02*
X135526800Y-58580000D01*
X148500000Y-54500000D02*
X148000000Y-54000000D01*
X148500000Y-54700000D02*
X148500000Y-54500000D01*
X148000000Y-54200000D02*
X147500000Y-54700000D01*
X148000000Y-54000000D02*
X148000000Y-54200000D01*
X148000000Y-54300000D02*
X148000000Y-54800000D01*
X148000000Y-54800000D02*
X147600000Y-55200000D01*
X148400000Y-54700000D02*
X148000000Y-54300000D01*
X148400000Y-55200000D02*
X148400000Y-54700000D01*
X148000000Y-57000000D02*
X145400000Y-57000000D01*
X145000000Y-57000000D02*
X145400000Y-57000000D01*
D18*
X138265000Y-53300000D02*
X138265000Y-53759000D01*
X138265000Y-53759000D02*
X137464800Y-54559200D01*
X135250000Y-53500000D02*
X134500000Y-53500000D01*
X136309200Y-54559200D02*
X135250000Y-53500000D01*
X137464800Y-54559200D02*
X136309200Y-54559200D01*
X139535000Y-53242500D02*
X139535000Y-52925000D01*
X139535000Y-53300000D02*
X139535000Y-53606600D01*
X139293600Y-53541400D02*
X139535000Y-53300000D01*
X137000000Y-56040000D02*
X134500000Y-56040000D01*
X139535000Y-53300000D02*
X139535000Y-53505000D01*
X139535000Y-53505000D02*
X137000000Y-56040000D01*
X139500000Y-58900000D02*
X139500000Y-59240000D01*
X139500000Y-59240000D02*
X139535000Y-59275000D01*
X139395200Y-57251600D02*
X139598400Y-57251600D01*
X138265000Y-58900000D02*
X138265000Y-58381800D01*
X138265000Y-58381800D02*
X139395200Y-57251600D01*
X136995000Y-58405000D02*
X136995000Y-59275000D01*
X136995000Y-58477267D02*
X136995000Y-58900000D01*
X139672267Y-55800000D02*
X136995000Y-58477267D01*
X140157200Y-55800000D02*
X139672267Y-55800000D01*
D20*
G36*
X149496495Y-53164586D02*
G01*
X149444400Y-53426485D01*
X149444400Y-53693515D01*
X149496495Y-53955414D01*
X149598400Y-54201434D01*
X149598400Y-57998566D01*
X149496495Y-58244586D01*
X149444400Y-58506485D01*
X149444400Y-58773515D01*
X149496495Y-59035414D01*
X149572705Y-59219400D01*
X143407320Y-59219400D01*
X143407320Y-58700000D01*
X143400454Y-58630290D01*
X143380121Y-58563260D01*
X143347101Y-58501484D01*
X143302663Y-58447337D01*
X143248516Y-58402899D01*
X143186740Y-58369879D01*
X143119710Y-58349546D01*
X143050000Y-58342680D01*
X142823180Y-58342680D01*
X142730864Y-58280997D01*
X142603745Y-58228343D01*
X142468796Y-58201500D01*
X142331204Y-58201500D01*
X142196255Y-58228343D01*
X142069136Y-58280997D01*
X141976820Y-58342680D01*
X141750000Y-58342680D01*
X141680290Y-58349546D01*
X141613260Y-58369879D01*
X141551484Y-58402899D01*
X141511854Y-58435423D01*
X141512321Y-58328500D01*
X141505455Y-58258790D01*
X141485122Y-58191759D01*
X141452102Y-58129983D01*
X141407664Y-58075836D01*
X141353517Y-58031398D01*
X141291741Y-57998378D01*
X141224710Y-57978045D01*
X141155000Y-57971179D01*
X140982800Y-57972900D01*
X140893900Y-58061800D01*
X140893900Y-58811100D01*
X140913900Y-58811100D01*
X140913900Y-58988900D01*
X140893900Y-58988900D01*
X140893900Y-59008900D01*
X140716100Y-59008900D01*
X140716100Y-58988900D01*
X140696100Y-58988900D01*
X140696100Y-58811100D01*
X140716100Y-58811100D01*
X140716100Y-58061800D01*
X140627200Y-57972900D01*
X140455000Y-57971179D01*
X140385290Y-57978045D01*
X140318259Y-57998378D01*
X140256483Y-58031398D01*
X140202336Y-58075836D01*
X140169999Y-58115238D01*
X140137663Y-58075837D01*
X140083516Y-58031399D01*
X140021740Y-57998379D01*
X139954710Y-57978046D01*
X139885000Y-57971180D01*
X139358119Y-57971180D01*
X139404153Y-57925146D01*
X139529604Y-57950100D01*
X139667196Y-57950100D01*
X139802145Y-57923257D01*
X139929264Y-57870603D01*
X140043668Y-57794161D01*
X140140961Y-57696868D01*
X140217403Y-57582464D01*
X140251560Y-57500000D01*
X141392679Y-57500000D01*
X141399545Y-57569710D01*
X141419878Y-57636741D01*
X141452898Y-57698517D01*
X141497336Y-57752664D01*
X141551483Y-57797102D01*
X141613259Y-57830122D01*
X141680290Y-57850455D01*
X141750000Y-57857321D01*
X142222200Y-57855600D01*
X142311100Y-57766700D01*
X142311100Y-57238900D01*
X142488900Y-57238900D01*
X142488900Y-57766700D01*
X142577800Y-57855600D01*
X143050000Y-57857321D01*
X143119710Y-57850455D01*
X143186741Y-57830122D01*
X143248517Y-57797102D01*
X143302664Y-57752664D01*
X143347102Y-57698517D01*
X143380122Y-57636741D01*
X143400455Y-57569710D01*
X143407321Y-57500000D01*
X143405600Y-57327800D01*
X143316700Y-57238900D01*
X142488900Y-57238900D01*
X142311100Y-57238900D01*
X141483300Y-57238900D01*
X141394400Y-57327800D01*
X141392679Y-57500000D01*
X140251560Y-57500000D01*
X140270057Y-57455345D01*
X140296900Y-57320396D01*
X140296900Y-57182804D01*
X140270057Y-57047855D01*
X140217403Y-56920736D01*
X140140961Y-56806332D01*
X140134629Y-56800000D01*
X141392679Y-56800000D01*
X141394400Y-56972200D01*
X141483300Y-57061100D01*
X142311100Y-57061100D01*
X142311100Y-56533300D01*
X142488900Y-56533300D01*
X142488900Y-57061100D01*
X143316700Y-57061100D01*
X143405600Y-56972200D01*
X143407321Y-56800000D01*
X143400455Y-56730290D01*
X143380122Y-56663259D01*
X143347102Y-56601483D01*
X143302664Y-56547336D01*
X143248517Y-56502898D01*
X143186741Y-56469878D01*
X143119710Y-56449545D01*
X143050000Y-56442679D01*
X142577800Y-56444400D01*
X142488900Y-56533300D01*
X142311100Y-56533300D01*
X142222200Y-56444400D01*
X141750000Y-56442679D01*
X141680290Y-56449545D01*
X141613259Y-56469878D01*
X141551483Y-56502898D01*
X141497336Y-56547336D01*
X141452898Y-56601483D01*
X141419878Y-56663259D01*
X141399545Y-56730290D01*
X141392679Y-56800000D01*
X140134629Y-56800000D01*
X140043668Y-56709039D01*
X139929264Y-56632597D01*
X139802145Y-56579943D01*
X139667196Y-56553100D01*
X139601666Y-56553100D01*
X139772041Y-56382725D01*
X139826336Y-56419003D01*
X139953455Y-56471657D01*
X140088404Y-56498500D01*
X140225996Y-56498500D01*
X140360945Y-56471657D01*
X140488064Y-56419003D01*
X140602468Y-56342561D01*
X140699761Y-56245268D01*
X140776203Y-56130864D01*
X140828857Y-56003745D01*
X140855700Y-55868796D01*
X140855700Y-55800000D01*
X141417679Y-55800000D01*
X141424545Y-55869710D01*
X141444878Y-55936741D01*
X141477898Y-55998517D01*
X141522336Y-56052664D01*
X141576483Y-56097102D01*
X141638259Y-56130122D01*
X141705290Y-56150455D01*
X141775000Y-56157321D01*
X142222200Y-56155600D01*
X142311100Y-56066700D01*
X142311100Y-55388900D01*
X142488900Y-55388900D01*
X142488900Y-56066700D01*
X142577800Y-56155600D01*
X143025000Y-56157321D01*
X143094710Y-56150455D01*
X143161741Y-56130122D01*
X143223517Y-56097102D01*
X143277664Y-56052664D01*
X143320884Y-56000000D01*
X143592680Y-56000000D01*
X143592680Y-58000000D01*
X143599546Y-58069710D01*
X143619879Y-58136740D01*
X143652899Y-58198516D01*
X143697337Y-58252663D01*
X143751484Y-58297101D01*
X143813260Y-58330121D01*
X143880290Y-58350454D01*
X143950000Y-58357320D01*
X146450000Y-58357320D01*
X146519710Y-58350454D01*
X146586740Y-58330121D01*
X146648516Y-58297101D01*
X146702663Y-58252663D01*
X146747101Y-58198516D01*
X146780121Y-58136740D01*
X146800454Y-58069710D01*
X146807320Y-58000000D01*
X146807320Y-57609600D01*
X146892680Y-57609600D01*
X146892680Y-58050000D01*
X146899546Y-58119710D01*
X146919879Y-58186740D01*
X146952899Y-58248516D01*
X146997337Y-58302663D01*
X147051484Y-58347101D01*
X147113260Y-58380121D01*
X147180290Y-58400454D01*
X147250000Y-58407320D01*
X148750000Y-58407320D01*
X148819710Y-58400454D01*
X148886740Y-58380121D01*
X148948516Y-58347101D01*
X149002663Y-58302663D01*
X149047101Y-58248516D01*
X149080121Y-58186740D01*
X149100454Y-58119710D01*
X149107320Y-58050000D01*
X149107320Y-56550000D01*
X149100454Y-56480290D01*
X149080121Y-56413260D01*
X149047101Y-56351484D01*
X149002663Y-56297337D01*
X148948516Y-56252899D01*
X148886740Y-56219879D01*
X148819710Y-56199546D01*
X148750000Y-56192680D01*
X147250000Y-56192680D01*
X147180290Y-56199546D01*
X147113260Y-56219879D01*
X147051484Y-56252899D01*
X146997337Y-56297337D01*
X146952899Y-56351484D01*
X146932098Y-56390400D01*
X146807320Y-56390400D01*
X146807320Y-56000000D01*
X146800454Y-55930290D01*
X146780121Y-55863260D01*
X146747101Y-55801484D01*
X146702663Y-55747337D01*
X146648516Y-55702899D01*
X146586740Y-55669879D01*
X146519710Y-55649546D01*
X146450000Y-55642680D01*
X143950000Y-55642680D01*
X143880290Y-55649546D01*
X143813260Y-55669879D01*
X143751484Y-55702899D01*
X143697337Y-55747337D01*
X143652899Y-55801484D01*
X143619879Y-55863260D01*
X143599546Y-55930290D01*
X143592680Y-56000000D01*
X143320884Y-56000000D01*
X143322102Y-55998517D01*
X143355122Y-55936741D01*
X143375455Y-55869710D01*
X143382321Y-55800000D01*
X143380600Y-55477800D01*
X143291700Y-55388900D01*
X142488900Y-55388900D01*
X142311100Y-55388900D01*
X141508300Y-55388900D01*
X141419400Y-55477800D01*
X141417679Y-55800000D01*
X140855700Y-55800000D01*
X140855700Y-55731204D01*
X140828857Y-55596255D01*
X140776203Y-55469136D01*
X140699761Y-55354732D01*
X140602468Y-55257439D01*
X140523146Y-55204438D01*
X140564928Y-55170148D01*
X140584025Y-55146878D01*
X140930903Y-54800000D01*
X141417679Y-54800000D01*
X141419400Y-55122200D01*
X141508300Y-55211100D01*
X142311100Y-55211100D01*
X142311100Y-54533300D01*
X142488900Y-54533300D01*
X142488900Y-55211100D01*
X143291700Y-55211100D01*
X143380600Y-55122200D01*
X143382321Y-54800000D01*
X143375455Y-54730290D01*
X143355122Y-54663259D01*
X143322102Y-54601483D01*
X143277664Y-54547336D01*
X143223517Y-54502898D01*
X143161741Y-54469878D01*
X143094710Y-54449545D01*
X143025000Y-54442679D01*
X142577800Y-54444400D01*
X142488900Y-54533300D01*
X142311100Y-54533300D01*
X142222200Y-54444400D01*
X141775000Y-54442679D01*
X141705290Y-54449545D01*
X141638259Y-54469878D01*
X141576483Y-54502898D01*
X141522336Y-54547336D01*
X141477898Y-54601483D01*
X141444878Y-54663259D01*
X141424545Y-54730290D01*
X141417679Y-54800000D01*
X140930903Y-54800000D01*
X141214873Y-54516031D01*
X141238138Y-54496938D01*
X141314316Y-54404114D01*
X141355464Y-54327130D01*
X141370921Y-54298213D01*
X141405779Y-54183303D01*
X141412141Y-54118706D01*
X141452101Y-54070016D01*
X141485121Y-54008240D01*
X141485326Y-54007565D01*
X141522337Y-54052663D01*
X141576484Y-54097101D01*
X141638260Y-54130121D01*
X141705290Y-54150454D01*
X141775000Y-54157320D01*
X143025000Y-54157320D01*
X143094710Y-54150454D01*
X143161740Y-54130121D01*
X143223516Y-54097101D01*
X143277663Y-54052663D01*
X143322101Y-53998516D01*
X143355121Y-53936740D01*
X143363354Y-53909600D01*
X143592680Y-53909600D01*
X143592680Y-54800000D01*
X143599546Y-54869710D01*
X143619879Y-54936740D01*
X143652899Y-54998516D01*
X143697337Y-55052663D01*
X143751484Y-55097101D01*
X143813260Y-55130121D01*
X143880290Y-55150454D01*
X143950000Y-55157320D01*
X146450000Y-55157320D01*
X146519710Y-55150454D01*
X146586740Y-55130121D01*
X146648516Y-55097101D01*
X146702663Y-55052663D01*
X146747101Y-54998516D01*
X146780121Y-54936740D01*
X146800454Y-54869710D01*
X146807320Y-54800000D01*
X146807320Y-54700000D01*
X146887451Y-54700000D01*
X146892680Y-54753091D01*
X146892680Y-55050000D01*
X146899546Y-55119710D01*
X146902107Y-55128153D01*
X146901500Y-55131204D01*
X146901500Y-55268796D01*
X146928343Y-55403745D01*
X146980997Y-55530864D01*
X147057439Y-55645268D01*
X147154732Y-55742561D01*
X147269136Y-55819003D01*
X147396255Y-55871657D01*
X147531204Y-55898500D01*
X147668796Y-55898500D01*
X147803745Y-55871657D01*
X147930864Y-55819003D01*
X148000000Y-55772808D01*
X148069136Y-55819003D01*
X148196255Y-55871657D01*
X148331204Y-55898500D01*
X148468796Y-55898500D01*
X148603745Y-55871657D01*
X148730864Y-55819003D01*
X148845268Y-55742561D01*
X148942561Y-55645268D01*
X149019003Y-55530864D01*
X149071657Y-55403745D01*
X149098500Y-55268796D01*
X149098500Y-55131204D01*
X149097893Y-55128153D01*
X149100454Y-55119710D01*
X149107320Y-55050000D01*
X149107320Y-54753090D01*
X149109600Y-54729941D01*
X149109600Y-54529941D01*
X149112549Y-54500000D01*
X149107320Y-54446909D01*
X149107320Y-53550000D01*
X149100454Y-53480290D01*
X149080121Y-53413260D01*
X149047101Y-53351484D01*
X149002663Y-53297337D01*
X148948516Y-53252899D01*
X148886740Y-53219879D01*
X148819710Y-53199546D01*
X148750000Y-53192680D01*
X147250000Y-53192680D01*
X147180290Y-53199546D01*
X147113260Y-53219879D01*
X147051484Y-53252899D01*
X146997337Y-53297337D01*
X146952899Y-53351484D01*
X146919879Y-53413260D01*
X146899546Y-53480290D01*
X146892680Y-53550000D01*
X146892680Y-54646909D01*
X146887451Y-54700000D01*
X146807320Y-54700000D01*
X146807320Y-52980600D01*
X149572705Y-52980600D01*
X149496495Y-53164586D01*
X149496495Y-53164586D01*
G37*
X149496495Y-53164586D02*
X149444400Y-53426485D01*
X149444400Y-53693515D01*
X149496495Y-53955414D01*
X149598400Y-54201434D01*
X149598400Y-57998566D01*
X149496495Y-58244586D01*
X149444400Y-58506485D01*
X149444400Y-58773515D01*
X149496495Y-59035414D01*
X149572705Y-59219400D01*
X143407320Y-59219400D01*
X143407320Y-58700000D01*
X143400454Y-58630290D01*
X143380121Y-58563260D01*
X143347101Y-58501484D01*
X143302663Y-58447337D01*
X143248516Y-58402899D01*
X143186740Y-58369879D01*
X143119710Y-58349546D01*
X143050000Y-58342680D01*
X142823180Y-58342680D01*
X142730864Y-58280997D01*
X142603745Y-58228343D01*
X142468796Y-58201500D01*
X142331204Y-58201500D01*
X142196255Y-58228343D01*
X142069136Y-58280997D01*
X141976820Y-58342680D01*
X141750000Y-58342680D01*
X141680290Y-58349546D01*
X141613260Y-58369879D01*
X141551484Y-58402899D01*
X141511854Y-58435423D01*
X141512321Y-58328500D01*
X141505455Y-58258790D01*
X141485122Y-58191759D01*
X141452102Y-58129983D01*
X141407664Y-58075836D01*
X141353517Y-58031398D01*
X141291741Y-57998378D01*
X141224710Y-57978045D01*
X141155000Y-57971179D01*
X140982800Y-57972900D01*
X140893900Y-58061800D01*
X140893900Y-58811100D01*
X140913900Y-58811100D01*
X140913900Y-58988900D01*
X140893900Y-58988900D01*
X140893900Y-59008900D01*
X140716100Y-59008900D01*
X140716100Y-58988900D01*
X140696100Y-58988900D01*
X140696100Y-58811100D01*
X140716100Y-58811100D01*
X140716100Y-58061800D01*
X140627200Y-57972900D01*
X140455000Y-57971179D01*
X140385290Y-57978045D01*
X140318259Y-57998378D01*
X140256483Y-58031398D01*
X140202336Y-58075836D01*
X140169999Y-58115238D01*
X140137663Y-58075837D01*
X140083516Y-58031399D01*
X140021740Y-57998379D01*
X139954710Y-57978046D01*
X139885000Y-57971180D01*
X139358119Y-57971180D01*
X139404153Y-57925146D01*
X139529604Y-57950100D01*
X139667196Y-57950100D01*
X139802145Y-57923257D01*
X139929264Y-57870603D01*
X140043668Y-57794161D01*
X140140961Y-57696868D01*
X140217403Y-57582464D01*
X140251560Y-57500000D01*
X141392679Y-57500000D01*
X141399545Y-57569710D01*
X141419878Y-57636741D01*
X141452898Y-57698517D01*
X141497336Y-57752664D01*
X141551483Y-57797102D01*
X141613259Y-57830122D01*
X141680290Y-57850455D01*
X141750000Y-57857321D01*
X142222200Y-57855600D01*
X142311100Y-57766700D01*
X142311100Y-57238900D01*
X142488900Y-57238900D01*
X142488900Y-57766700D01*
X142577800Y-57855600D01*
X143050000Y-57857321D01*
X143119710Y-57850455D01*
X143186741Y-57830122D01*
X143248517Y-57797102D01*
X143302664Y-57752664D01*
X143347102Y-57698517D01*
X143380122Y-57636741D01*
X143400455Y-57569710D01*
X143407321Y-57500000D01*
X143405600Y-57327800D01*
X143316700Y-57238900D01*
X142488900Y-57238900D01*
X142311100Y-57238900D01*
X141483300Y-57238900D01*
X141394400Y-57327800D01*
X141392679Y-57500000D01*
X140251560Y-57500000D01*
X140270057Y-57455345D01*
X140296900Y-57320396D01*
X140296900Y-57182804D01*
X140270057Y-57047855D01*
X140217403Y-56920736D01*
X140140961Y-56806332D01*
X140134629Y-56800000D01*
X141392679Y-56800000D01*
X141394400Y-56972200D01*
X141483300Y-57061100D01*
X142311100Y-57061100D01*
X142311100Y-56533300D01*
X142488900Y-56533300D01*
X142488900Y-57061100D01*
X143316700Y-57061100D01*
X143405600Y-56972200D01*
X143407321Y-56800000D01*
X143400455Y-56730290D01*
X143380122Y-56663259D01*
X143347102Y-56601483D01*
X143302664Y-56547336D01*
X143248517Y-56502898D01*
X143186741Y-56469878D01*
X143119710Y-56449545D01*
X143050000Y-56442679D01*
X142577800Y-56444400D01*
X142488900Y-56533300D01*
X142311100Y-56533300D01*
X142222200Y-56444400D01*
X141750000Y-56442679D01*
X141680290Y-56449545D01*
X141613259Y-56469878D01*
X141551483Y-56502898D01*
X141497336Y-56547336D01*
X141452898Y-56601483D01*
X141419878Y-56663259D01*
X141399545Y-56730290D01*
X141392679Y-56800000D01*
X140134629Y-56800000D01*
X140043668Y-56709039D01*
X139929264Y-56632597D01*
X139802145Y-56579943D01*
X139667196Y-56553100D01*
X139601666Y-56553100D01*
X139772041Y-56382725D01*
X139826336Y-56419003D01*
X139953455Y-56471657D01*
X140088404Y-56498500D01*
X140225996Y-56498500D01*
X140360945Y-56471657D01*
X140488064Y-56419003D01*
X140602468Y-56342561D01*
X140699761Y-56245268D01*
X140776203Y-56130864D01*
X140828857Y-56003745D01*
X140855700Y-55868796D01*
X140855700Y-55800000D01*
X141417679Y-55800000D01*
X141424545Y-55869710D01*
X141444878Y-55936741D01*
X141477898Y-55998517D01*
X141522336Y-56052664D01*
X141576483Y-56097102D01*
X141638259Y-56130122D01*
X141705290Y-56150455D01*
X141775000Y-56157321D01*
X142222200Y-56155600D01*
X142311100Y-56066700D01*
X142311100Y-55388900D01*
X142488900Y-55388900D01*
X142488900Y-56066700D01*
X142577800Y-56155600D01*
X143025000Y-56157321D01*
X143094710Y-56150455D01*
X143161741Y-56130122D01*
X143223517Y-56097102D01*
X143277664Y-56052664D01*
X143320884Y-56000000D01*
X143592680Y-56000000D01*
X143592680Y-58000000D01*
X143599546Y-58069710D01*
X143619879Y-58136740D01*
X143652899Y-58198516D01*
X143697337Y-58252663D01*
X143751484Y-58297101D01*
X143813260Y-58330121D01*
X143880290Y-58350454D01*
X143950000Y-58357320D01*
X146450000Y-58357320D01*
X146519710Y-58350454D01*
X146586740Y-58330121D01*
X146648516Y-58297101D01*
X146702663Y-58252663D01*
X146747101Y-58198516D01*
X146780121Y-58136740D01*
X146800454Y-58069710D01*
X146807320Y-58000000D01*
X146807320Y-57609600D01*
X146892680Y-57609600D01*
X146892680Y-58050000D01*
X146899546Y-58119710D01*
X146919879Y-58186740D01*
X146952899Y-58248516D01*
X146997337Y-58302663D01*
X147051484Y-58347101D01*
X147113260Y-58380121D01*
X147180290Y-58400454D01*
X147250000Y-58407320D01*
X148750000Y-58407320D01*
X148819710Y-58400454D01*
X148886740Y-58380121D01*
X148948516Y-58347101D01*
X149002663Y-58302663D01*
X149047101Y-58248516D01*
X149080121Y-58186740D01*
X149100454Y-58119710D01*
X149107320Y-58050000D01*
X149107320Y-56550000D01*
X149100454Y-56480290D01*
X149080121Y-56413260D01*
X149047101Y-56351484D01*
X149002663Y-56297337D01*
X148948516Y-56252899D01*
X148886740Y-56219879D01*
X148819710Y-56199546D01*
X148750000Y-56192680D01*
X147250000Y-56192680D01*
X147180290Y-56199546D01*
X147113260Y-56219879D01*
X147051484Y-56252899D01*
X146997337Y-56297337D01*
X146952899Y-56351484D01*
X146932098Y-56390400D01*
X146807320Y-56390400D01*
X146807320Y-56000000D01*
X146800454Y-55930290D01*
X146780121Y-55863260D01*
X146747101Y-55801484D01*
X146702663Y-55747337D01*
X146648516Y-55702899D01*
X146586740Y-55669879D01*
X146519710Y-55649546D01*
X146450000Y-55642680D01*
X143950000Y-55642680D01*
X143880290Y-55649546D01*
X143813260Y-55669879D01*
X143751484Y-55702899D01*
X143697337Y-55747337D01*
X143652899Y-55801484D01*
X143619879Y-55863260D01*
X143599546Y-55930290D01*
X143592680Y-56000000D01*
X143320884Y-56000000D01*
X143322102Y-55998517D01*
X143355122Y-55936741D01*
X143375455Y-55869710D01*
X143382321Y-55800000D01*
X143380600Y-55477800D01*
X143291700Y-55388900D01*
X142488900Y-55388900D01*
X142311100Y-55388900D01*
X141508300Y-55388900D01*
X141419400Y-55477800D01*
X141417679Y-55800000D01*
X140855700Y-55800000D01*
X140855700Y-55731204D01*
X140828857Y-55596255D01*
X140776203Y-55469136D01*
X140699761Y-55354732D01*
X140602468Y-55257439D01*
X140523146Y-55204438D01*
X140564928Y-55170148D01*
X140584025Y-55146878D01*
X140930903Y-54800000D01*
X141417679Y-54800000D01*
X141419400Y-55122200D01*
X141508300Y-55211100D01*
X142311100Y-55211100D01*
X142311100Y-54533300D01*
X142488900Y-54533300D01*
X142488900Y-55211100D01*
X143291700Y-55211100D01*
X143380600Y-55122200D01*
X143382321Y-54800000D01*
X143375455Y-54730290D01*
X143355122Y-54663259D01*
X143322102Y-54601483D01*
X143277664Y-54547336D01*
X143223517Y-54502898D01*
X143161741Y-54469878D01*
X143094710Y-54449545D01*
X143025000Y-54442679D01*
X142577800Y-54444400D01*
X142488900Y-54533300D01*
X142311100Y-54533300D01*
X142222200Y-54444400D01*
X141775000Y-54442679D01*
X141705290Y-54449545D01*
X141638259Y-54469878D01*
X141576483Y-54502898D01*
X141522336Y-54547336D01*
X141477898Y-54601483D01*
X141444878Y-54663259D01*
X141424545Y-54730290D01*
X141417679Y-54800000D01*
X140930903Y-54800000D01*
X141214873Y-54516031D01*
X141238138Y-54496938D01*
X141314316Y-54404114D01*
X141355464Y-54327130D01*
X141370921Y-54298213D01*
X141405779Y-54183303D01*
X141412141Y-54118706D01*
X141452101Y-54070016D01*
X141485121Y-54008240D01*
X141485326Y-54007565D01*
X141522337Y-54052663D01*
X141576484Y-54097101D01*
X141638260Y-54130121D01*
X141705290Y-54150454D01*
X141775000Y-54157320D01*
X143025000Y-54157320D01*
X143094710Y-54150454D01*
X143161740Y-54130121D01*
X143223516Y-54097101D01*
X143277663Y-54052663D01*
X143322101Y-53998516D01*
X143355121Y-53936740D01*
X143363354Y-53909600D01*
X143592680Y-53909600D01*
X143592680Y-54800000D01*
X143599546Y-54869710D01*
X143619879Y-54936740D01*
X143652899Y-54998516D01*
X143697337Y-55052663D01*
X143751484Y-55097101D01*
X143813260Y-55130121D01*
X143880290Y-55150454D01*
X143950000Y-55157320D01*
X146450000Y-55157320D01*
X146519710Y-55150454D01*
X146586740Y-55130121D01*
X146648516Y-55097101D01*
X146702663Y-55052663D01*
X146747101Y-54998516D01*
X146780121Y-54936740D01*
X146800454Y-54869710D01*
X146807320Y-54800000D01*
X146807320Y-54700000D01*
X146887451Y-54700000D01*
X146892680Y-54753091D01*
X146892680Y-55050000D01*
X146899546Y-55119710D01*
X146902107Y-55128153D01*
X146901500Y-55131204D01*
X146901500Y-55268796D01*
X146928343Y-55403745D01*
X146980997Y-55530864D01*
X147057439Y-55645268D01*
X147154732Y-55742561D01*
X147269136Y-55819003D01*
X147396255Y-55871657D01*
X147531204Y-55898500D01*
X147668796Y-55898500D01*
X147803745Y-55871657D01*
X147930864Y-55819003D01*
X148000000Y-55772808D01*
X148069136Y-55819003D01*
X148196255Y-55871657D01*
X148331204Y-55898500D01*
X148468796Y-55898500D01*
X148603745Y-55871657D01*
X148730864Y-55819003D01*
X148845268Y-55742561D01*
X148942561Y-55645268D01*
X149019003Y-55530864D01*
X149071657Y-55403745D01*
X149098500Y-55268796D01*
X149098500Y-55131204D01*
X149097893Y-55128153D01*
X149100454Y-55119710D01*
X149107320Y-55050000D01*
X149107320Y-54753090D01*
X149109600Y-54729941D01*
X149109600Y-54529941D01*
X149112549Y-54500000D01*
X149107320Y-54446909D01*
X149107320Y-53550000D01*
X149100454Y-53480290D01*
X149080121Y-53413260D01*
X149047101Y-53351484D01*
X149002663Y-53297337D01*
X148948516Y-53252899D01*
X148886740Y-53219879D01*
X148819710Y-53199546D01*
X148750000Y-53192680D01*
X147250000Y-53192680D01*
X147180290Y-53199546D01*
X147113260Y-53219879D01*
X147051484Y-53252899D01*
X146997337Y-53297337D01*
X146952899Y-53351484D01*
X146919879Y-53413260D01*
X146899546Y-53480290D01*
X146892680Y-53550000D01*
X146892680Y-54646909D01*
X146887451Y-54700000D01*
X146807320Y-54700000D01*
X146807320Y-52980600D01*
X149572705Y-52980600D01*
X149496495Y-53164586D01*
M02*
