M48
; DRILL file {KiCad (5.1.4)-1} date 19/05/2020 09:11:53
; FORMAT={-:-/ absolute / inch / decimal}
; #@! TF.CreationDate,2020-05-19T09:11:53+02:00
; #@! TF.GenerationSoftware,Kicad,Pcbnew,(5.1.4)-1
; #@! TF.FileFunction,Plated,1,2,PTH
FMAT,2
INCH
T1C0.0100
T2C0.0354
T3C0.0394
T4C0.0827
%
G90
G05
T1
X4.075Y-0.85
X4.075Y-1.15
X4.075Y-1.45
X4.075Y-1.75
X4.075Y-2.05
X4.075Y-2.35
X4.075Y-2.65
X4.075Y-2.925
X4.1Y-0.625
X4.125Y-0.6
X4.35Y-1.75
X4.35Y-2.925
X4.4Y-0.59
X4.65Y-0.85
X4.65Y-1.15
X4.65Y-1.45
X4.65Y-1.75
X4.65Y-2.05
X4.65Y-2.35
X4.65Y-2.65
X4.65Y-2.925
X4.675Y-0.625
X4.675Y-0.925
X4.675Y-2.425
X4.95Y-0.85
X4.95Y-1.15
X4.95Y-1.45
X4.95Y-1.75
X4.95Y-2.05
X4.95Y-2.35
X4.95Y-2.65
X4.95Y-2.925
X4.975Y-0.625
X4.975Y-0.925
X4.975Y-2.425
X5.25Y-0.85
X5.25Y-1.15
X5.25Y-1.45
X5.25Y-1.75
X5.25Y-2.05
X5.25Y-2.35
X5.25Y-2.65
X5.25Y-2.925
X5.275Y-0.625
X5.275Y-0.925
X5.275Y-2.425
X5.55Y-0.85
X5.55Y-1.15
X5.55Y-1.45
X5.55Y-1.75
X5.55Y-2.05
X5.55Y-2.35
X5.55Y-2.63
X5.55Y-2.925
X5.575Y-0.625
X5.575Y-0.925
X5.575Y-2.425
X5.85Y-0.85
X5.85Y-1.15
X5.85Y-1.45
X5.85Y-1.75
X5.85Y-2.05
X5.85Y-2.35
X5.85Y-2.65
X5.85Y-2.925
X5.875Y-0.625
X5.875Y-0.925
X5.875Y-2.425
X6.15Y-1.75
X6.15Y-2.925
X6.175Y-0.625
X6.35Y-2.6
X6.375Y-2.9
X6.4Y-2.875
X6.425Y-0.575
X6.425Y-0.85
X6.425Y-1.15
X6.425Y-1.45
X6.425Y-1.75
X6.425Y-2.05
X6.425Y-2.35
X6.425Y-2.65
T2
X5.5939Y-2.5354
X5.6646Y-2.4646
X5.6646Y-2.6061
X5.7354Y-2.3939
X5.7354Y-2.5354
X5.8061Y-2.4646
X5.2939Y-1.6354
X5.3646Y-1.5646
X5.3646Y-1.7061
X5.4354Y-1.4939
X5.4354Y-1.6354
X5.5061Y-1.5646
X5.8939Y-2.2354
X5.9646Y-2.1646
X5.9646Y-2.3061
X6.0354Y-2.0939
X6.0354Y-2.2354
X6.1061Y-2.1646
X5.8939Y-0.7354
X5.9646Y-0.6646
X5.9646Y-0.8061
X6.0354Y-0.5939
X6.0354Y-0.7354
X6.1061Y-0.6646
X4.3939Y-1.3354
X4.4646Y-1.2646
X4.4646Y-1.4061
X4.5354Y-1.1939
X4.5354Y-1.3354
X4.6061Y-1.2646
X4.9939Y-2.2354
X5.0646Y-2.1646
X5.0646Y-2.3061
X5.1354Y-2.0939
X5.1354Y-2.2354
X5.2061Y-2.1646
X4.9939Y-0.7354
X5.0646Y-0.6646
X5.0646Y-0.8061
X5.1354Y-0.5939
X5.1354Y-0.7354
X5.2061Y-0.6646
X5.5939Y-2.8354
X5.6646Y-2.7646
X5.6646Y-2.9061
X5.7354Y-2.6939
X5.7354Y-2.8354
X5.8061Y-2.7646
X4.3939Y-1.6354
X4.4646Y-1.5646
X4.4646Y-1.7061
X4.5354Y-1.4939
X4.5354Y-1.6354
X4.6061Y-1.5646
X5.8939Y-1.0354
X5.9646Y-0.9646
X5.9646Y-1.1061
X6.0354Y-0.8939
X6.0354Y-1.0354
X6.1061Y-0.9646
X5.8939Y-1.3354
X5.9646Y-1.2646
X5.9646Y-1.4061
X6.0354Y-1.1939
X6.0354Y-1.3354
X6.1061Y-1.2646
X4.9939Y-1.0354
X5.0646Y-0.9646
X5.0646Y-1.1061
X5.1354Y-0.8939
X5.1354Y-1.0354
X5.2061Y-0.9646
X4.3939Y-2.2354
X4.4646Y-2.1646
X4.4646Y-2.3061
X4.5354Y-2.0939
X4.5354Y-2.2354
X4.6061Y-2.1646
X4.3939Y-2.8354
X4.4646Y-2.7646
X4.4646Y-2.9061
X4.5354Y-2.6939
X4.5354Y-2.8354
X4.6061Y-2.7646
X4.0939Y-1.9354
X4.1646Y-1.8646
X4.1646Y-2.0061
X4.2354Y-1.7939
X4.2354Y-1.9354
X4.3061Y-1.8646
X4.6939Y-2.5354
X4.7646Y-2.4646
X4.7646Y-2.6061
X4.8354Y-2.3939
X4.8354Y-2.5354
X4.9061Y-2.4646
X4.9939Y-1.3354
X5.0646Y-1.2646
X5.0646Y-1.4061
X5.1354Y-1.1939
X5.1354Y-1.3354
X5.2061Y-1.2646
X5.8939Y-1.9354
X5.9646Y-1.8646
X5.9646Y-2.0061
X6.0354Y-1.7939
X6.0354Y-1.9354
X6.1061Y-1.8646
X5.8939Y-2.5354
X5.9646Y-2.4646
X5.9646Y-2.6061
X6.0354Y-2.3939
X6.0354Y-2.5354
X6.1061Y-2.4646
X5.5939Y-1.6354
X5.6646Y-1.5646
X5.6646Y-1.7061
X5.7354Y-1.4939
X5.7354Y-1.6354
X5.8061Y-1.5646
X6.1939Y-2.2354
X6.2646Y-2.1646
X6.2646Y-2.3061
X6.3354Y-2.0939
X6.3354Y-2.2354
X6.4061Y-2.1646
X6.1939Y-0.7354
X6.2646Y-0.6646
X6.2646Y-0.8061
X6.3354Y-0.5939
X6.3354Y-0.7354
X6.4061Y-0.6646
X4.9939Y-1.9354
X5.0646Y-1.8646
X5.0646Y-2.0061
X5.1354Y-1.7939
X5.1354Y-1.9354
X5.2061Y-1.8646
X4.9939Y-2.5354
X5.0646Y-2.4646
X5.0646Y-2.6061
X5.1354Y-2.3939
X5.1354Y-2.5354
X5.2061Y-2.4646
X5.2939Y-2.2354
X5.3646Y-2.1646
X5.3646Y-2.3061
X5.4354Y-2.0939
X5.4354Y-2.2354
X5.5061Y-2.1646
X5.2939Y-0.7354
X5.3646Y-0.6646
X5.3646Y-0.8061
X5.4354Y-0.5939
X5.4354Y-0.7354
X5.5061Y-0.6646
X5.8939Y-2.8354
X5.9646Y-2.7646
X5.9646Y-2.9061
X6.0354Y-2.6939
X6.0354Y-2.8354
X6.1061Y-2.7646
X6.1939Y-1.0354
X6.2646Y-0.9646
X6.2646Y-1.1061
X6.3354Y-0.8939
X6.3354Y-1.0354
X6.4061Y-0.9646
X4.0939Y-0.7354
X4.1646Y-0.6646
X4.1646Y-0.8061
X4.2354Y-0.5939
X4.2354Y-0.7354
X4.3061Y-0.6646
X4.9939Y-2.8354
X5.0646Y-2.7646
X5.0646Y-2.9061
X5.1354Y-2.6939
X5.1354Y-2.8354
X5.2061Y-2.7646
X6.1939Y-1.3354
X6.2646Y-1.2646
X6.2646Y-1.4061
X6.3354Y-1.1939
X6.3354Y-1.3354
X6.4061Y-1.2646
X5.2939Y-1.0354
X5.3646Y-0.9646
X5.3646Y-1.1061
X5.4354Y-0.8939
X5.4354Y-1.0354
X5.5061Y-0.9646
X4.6939Y-2.2354
X4.7646Y-2.1646
X4.7646Y-2.3061
X4.8354Y-2.0939
X4.8354Y-2.2354
X4.9061Y-2.1646
X4.6939Y-2.8354
X4.7646Y-2.7646
X4.7646Y-2.9061
X4.8354Y-2.6939
X4.8354Y-2.8354
X4.9061Y-2.7646
X4.3939Y-1.9354
X4.4646Y-1.8646
X4.4646Y-2.0061
X4.5354Y-1.7939
X4.5354Y-1.9354
X4.6061Y-1.8646
X5.2939Y-1.3354
X5.3646Y-1.2646
X5.3646Y-1.4061
X5.4354Y-1.1939
X5.4354Y-1.3354
X5.5061Y-1.2646
X6.1939Y-1.9354
X6.2646Y-1.8646
X6.2646Y-2.0061
X6.3354Y-1.7939
X6.3354Y-1.9354
X6.4061Y-1.8646
X6.1939Y-2.5354
X6.2646Y-2.4646
X6.2646Y-2.6061
X6.3354Y-2.3939
X6.3354Y-2.5354
X6.4061Y-2.4646
X5.8939Y-1.6354
X5.9646Y-1.5646
X5.9646Y-1.7061
X6.0354Y-1.4939
X6.0354Y-1.6354
X6.1061Y-1.5646
X4.0939Y-2.5374
X4.1646Y-2.4667
X4.1646Y-2.6081
X4.2354Y-2.396
X4.2354Y-2.5374
X4.3061Y-2.4667
X4.0939Y-1.0354
X4.1646Y-0.9646
X4.1646Y-1.1061
X4.2354Y-0.8939
X4.2354Y-1.0354
X4.3061Y-0.9646
X5.2939Y-1.9354
X5.3646Y-1.8646
X5.3646Y-2.0061
X5.4354Y-1.7939
X5.4354Y-1.9354
X5.5061Y-1.8646
X5.2939Y-2.5354
X5.3646Y-2.4646
X5.3646Y-2.6061
X5.4354Y-2.3939
X5.4354Y-2.5354
X5.5061Y-2.4646
X4.6939Y-1.6354
X4.7646Y-1.5646
X4.7646Y-1.7061
X4.8354Y-1.4939
X4.8354Y-1.6354
X4.9061Y-1.5646
X5.5939Y-2.2354
X5.6646Y-2.1646
X5.6646Y-2.3061
X5.7354Y-2.0939
X5.7354Y-2.2354
X5.8061Y-2.1646
X5.5939Y-0.7354
X5.6646Y-0.6646
X5.6646Y-0.8061
X5.7354Y-0.5939
X5.7354Y-0.7354
X5.8061Y-0.6646
X6.1939Y-2.8354
X6.2646Y-2.7646
X6.2646Y-2.9061
X6.3354Y-2.6939
X6.3354Y-2.8354
X6.4061Y-2.7646
X4.0939Y-1.3354
X4.1646Y-1.2646
X4.1646Y-1.4061
X4.2354Y-1.1939
X4.2354Y-1.3354
X4.3061Y-1.2646
X4.9939Y-1.6354
X5.0646Y-1.5646
X5.0646Y-1.7061
X5.1354Y-1.4939
X5.1354Y-1.6354
X5.2061Y-1.5646
X4.3939Y-0.7354
X4.4646Y-0.6646
X4.4646Y-0.8061
X4.5354Y-0.5939
X4.5354Y-0.7354
X4.6061Y-0.6646
X4.6939Y-0.7354
X4.7646Y-0.6646
X4.7646Y-0.8061
X4.8354Y-0.5939
X4.8354Y-0.7354
X4.9061Y-0.6646
X5.2939Y-2.8354
X5.3646Y-2.7646
X5.3646Y-2.9061
X5.4354Y-2.6939
X5.4354Y-2.8354
X5.5061Y-2.7646
X4.0939Y-1.6354
X4.1646Y-1.5646
X4.1646Y-1.7061
X4.2354Y-1.4939
X4.2354Y-1.6354
X4.3061Y-1.5646
X5.5939Y-1.0354
X5.6646Y-0.9646
X5.6646Y-1.1061
X5.7354Y-0.8939
X5.7354Y-1.0354
X5.8061Y-0.9646
X4.6939Y-1.9354
X4.7646Y-1.8646
X4.7646Y-2.0061
X4.8354Y-1.7939
X4.8354Y-1.9354
X4.9061Y-1.8646
X5.5939Y-1.3354
X5.6646Y-1.2646
X5.6646Y-1.4061
X5.7354Y-1.1939
X5.7354Y-1.3354
X5.8061Y-1.2646
X4.6939Y-1.0354
X4.7646Y-0.9646
X4.7646Y-1.1061
X4.8354Y-0.8939
X4.8354Y-1.0354
X4.9061Y-0.9646
X4.0939Y-2.2354
X4.1646Y-2.1646
X4.1646Y-2.3061
X4.2354Y-2.0939
X4.2354Y-2.2354
X4.3061Y-2.1646
X4.0939Y-2.8354
X4.1646Y-2.7646
X4.1646Y-2.9061
X4.2354Y-2.6939
X4.2354Y-2.8354
X4.3061Y-2.7646
X6.1939Y-1.6354
X6.2646Y-1.5646
X6.2646Y-1.7061
X6.3354Y-1.4939
X6.3354Y-1.6354
X6.4061Y-1.5646
X4.3939Y-2.5354
X4.4646Y-2.4646
X4.4646Y-2.6061
X4.5354Y-2.3939
X4.5354Y-2.5354
X4.6061Y-2.4646
X4.6939Y-1.3354
X4.7646Y-1.2646
X4.7646Y-1.4061
X4.8354Y-1.1939
X4.8354Y-1.3354
X4.9061Y-1.2646
X4.3939Y-1.0354
X4.4646Y-0.9646
X4.4646Y-1.1061
X4.5354Y-0.8939
X4.5354Y-1.0354
X4.6061Y-0.9646
X5.5939Y-1.9354
X5.6646Y-1.8646
X5.6646Y-2.0061
X5.7354Y-1.7939
X5.7354Y-1.9354
X5.8061Y-1.8646
T3
X4.35Y-1.15
X6.15Y-2.35
X6.15Y-2.05
X4.35Y-2.35
X6.15Y-1.45
X4.35Y-2.05
X4.35Y-1.45
X6.15Y-1.15
T4
X4.35Y-0.85
X6.15Y-0.85
X4.35Y-2.65
X6.15Y-2.65
T0
M30
