G04 #@! TF.GenerationSoftware,KiCad,Pcbnew,(5.1.4)-1*
G04 #@! TF.CreationDate,2020-05-19T09:12:06+02:00*
G04 #@! TF.ProjectId,neonpixelmatrix,6e656f6e-7069-4786-956c-6d6174726978,rev?*
G04 #@! TF.SameCoordinates,Original*
G04 #@! TF.FileFunction,Legend,Top*
G04 #@! TF.FilePolarity,Positive*
%FSLAX46Y46*%
G04 Gerber Fmt 4.6, Leading zero omitted, Abs format (unit mm)*
G04 Created by KiCad (PCBNEW (5.1.4)-1) date 2020-05-19 09:12:06*
%MOMM*%
%LPD*%
G04 APERTURE LIST*
%ADD10C,0.254000*%
%ADD11C,0.150000*%
%ADD12C,0.120000*%
G04 APERTURE END LIST*
D10*
X133591904Y-52989238D02*
X133398380Y-52892476D01*
X133301619Y-52698952D01*
X133301619Y-50957238D01*
X132817809Y-37749238D02*
X133882190Y-36394571D01*
X132817809Y-36394571D02*
X133882190Y-37749238D01*
X133350000Y-30129238D02*
X133350000Y-28774571D01*
X133350000Y-28097238D02*
X133253238Y-28194000D01*
X133350000Y-28290761D01*
X133446761Y-28194000D01*
X133350000Y-28097238D01*
X133350000Y-28290761D01*
X132817809Y-22509238D02*
X132817809Y-20477238D01*
X133591904Y-20477238D01*
X133785428Y-20574000D01*
X133882190Y-20670761D01*
X133978952Y-20864285D01*
X133978952Y-21154571D01*
X133882190Y-21348095D01*
X133785428Y-21444857D01*
X133591904Y-21541619D01*
X132817809Y-21541619D01*
X148154571Y-44014571D02*
X148154571Y-45369238D01*
X148154571Y-44208095D02*
X148251333Y-44111333D01*
X148444857Y-44014571D01*
X148735142Y-44014571D01*
X148928666Y-44111333D01*
X149025428Y-44304857D01*
X149025428Y-45369238D01*
X140824857Y-45369238D02*
X140631333Y-45272476D01*
X140534571Y-45175714D01*
X140437809Y-44982190D01*
X140437809Y-44401619D01*
X140534571Y-44208095D01*
X140631333Y-44111333D01*
X140824857Y-44014571D01*
X141115142Y-44014571D01*
X141308666Y-44111333D01*
X141405428Y-44208095D01*
X141502190Y-44401619D01*
X141502190Y-44982190D01*
X141405428Y-45175714D01*
X141308666Y-45272476D01*
X141115142Y-45369238D01*
X140824857Y-45369238D01*
X133737047Y-45272476D02*
X133543523Y-45369238D01*
X133156476Y-45369238D01*
X132962952Y-45272476D01*
X132866190Y-45078952D01*
X132866190Y-44304857D01*
X132962952Y-44111333D01*
X133156476Y-44014571D01*
X133543523Y-44014571D01*
X133737047Y-44111333D01*
X133833809Y-44304857D01*
X133833809Y-44498380D01*
X132866190Y-44691904D01*
X125149428Y-45369238D02*
X125149428Y-43337238D01*
X126310571Y-45369238D01*
X126310571Y-43337238D01*
D11*
X133132102Y-40640000D02*
G75*
G03X133132102Y-40640000I-3592102J0D01*
G01*
D12*
X109160000Y-53400000D02*
X111820000Y-53400000D01*
X109160000Y-53340000D02*
X109160000Y-53400000D01*
X111820000Y-53340000D02*
X111820000Y-53400000D01*
X109160000Y-53340000D02*
X111820000Y-53340000D01*
X109160000Y-52070000D02*
X109160000Y-50740000D01*
X109160000Y-50740000D02*
X110490000Y-50740000D01*
X154880000Y-53400000D02*
X157540000Y-53400000D01*
X154880000Y-53340000D02*
X154880000Y-53400000D01*
X157540000Y-53340000D02*
X157540000Y-53400000D01*
X154880000Y-53340000D02*
X157540000Y-53340000D01*
X154880000Y-52070000D02*
X154880000Y-50740000D01*
X154880000Y-50740000D02*
X156210000Y-50740000D01*
X154880000Y-61020000D02*
X157540000Y-61020000D01*
X154880000Y-60960000D02*
X154880000Y-61020000D01*
X157540000Y-60960000D02*
X157540000Y-61020000D01*
X154880000Y-60960000D02*
X157540000Y-60960000D01*
X154880000Y-59690000D02*
X154880000Y-58360000D01*
X154880000Y-58360000D02*
X156210000Y-58360000D01*
X154880000Y-30540000D02*
X157540000Y-30540000D01*
X154880000Y-30480000D02*
X154880000Y-30540000D01*
X157540000Y-30480000D02*
X157540000Y-30540000D01*
X154880000Y-30480000D02*
X157540000Y-30480000D01*
X154880000Y-29210000D02*
X154880000Y-27880000D01*
X154880000Y-27880000D02*
X156210000Y-27880000D01*
X154880000Y-38160000D02*
X157540000Y-38160000D01*
X154880000Y-38100000D02*
X154880000Y-38160000D01*
X157540000Y-38100000D02*
X157540000Y-38160000D01*
X154880000Y-38100000D02*
X157540000Y-38100000D01*
X154880000Y-36830000D02*
X154880000Y-35500000D01*
X154880000Y-35500000D02*
X156210000Y-35500000D01*
X109160000Y-30540000D02*
X111820000Y-30540000D01*
X109160000Y-30480000D02*
X109160000Y-30540000D01*
X111820000Y-30480000D02*
X111820000Y-30540000D01*
X109160000Y-30480000D02*
X111820000Y-30480000D01*
X109160000Y-29210000D02*
X109160000Y-27880000D01*
X109160000Y-27880000D02*
X110490000Y-27880000D01*
X109160000Y-38160000D02*
X111820000Y-38160000D01*
X109160000Y-38100000D02*
X109160000Y-38160000D01*
X111820000Y-38100000D02*
X111820000Y-38160000D01*
X109160000Y-38100000D02*
X111820000Y-38100000D01*
X109160000Y-36830000D02*
X109160000Y-35500000D01*
X109160000Y-35500000D02*
X110490000Y-35500000D01*
X109160000Y-61020000D02*
X111820000Y-61020000D01*
X109160000Y-60960000D02*
X109160000Y-61020000D01*
X111820000Y-60960000D02*
X111820000Y-61020000D01*
X109160000Y-60960000D02*
X111820000Y-60960000D01*
X109160000Y-59690000D02*
X109160000Y-58360000D01*
X109160000Y-58360000D02*
X110490000Y-58360000D01*
D11*
X163612102Y-71120000D02*
G75*
G03X163612102Y-71120000I-3592102J0D01*
G01*
X155992102Y-71120000D02*
G75*
G03X155992102Y-71120000I-3592102J0D01*
G01*
X148372102Y-71120000D02*
G75*
G03X148372102Y-71120000I-3592102J0D01*
G01*
X140752102Y-71120000D02*
G75*
G03X140752102Y-71120000I-3592102J0D01*
G01*
X133132102Y-71120000D02*
G75*
G03X133132102Y-71120000I-3592102J0D01*
G01*
X125512102Y-71120000D02*
G75*
G03X125512102Y-71120000I-3592102J0D01*
G01*
X117892102Y-71120000D02*
G75*
G03X117892102Y-71120000I-3592102J0D01*
G01*
X110272102Y-71120000D02*
G75*
G03X110272102Y-71120000I-3592102J0D01*
G01*
X163612102Y-63500000D02*
G75*
G03X163612102Y-63500000I-3592102J0D01*
G01*
X155992102Y-63500000D02*
G75*
G03X155992102Y-63500000I-3592102J0D01*
G01*
X148372102Y-63500000D02*
G75*
G03X148372102Y-63500000I-3592102J0D01*
G01*
X140752102Y-63500000D02*
G75*
G03X140752102Y-63500000I-3592102J0D01*
G01*
X133132102Y-63500000D02*
G75*
G03X133132102Y-63500000I-3592102J0D01*
G01*
X125512102Y-63500000D02*
G75*
G03X125512102Y-63500000I-3592102J0D01*
G01*
X117892102Y-63500000D02*
G75*
G03X117892102Y-63500000I-3592102J0D01*
G01*
X110272102Y-63552102D02*
G75*
G03X110272102Y-63552102I-3592102J0D01*
G01*
X163612102Y-55880000D02*
G75*
G03X163612102Y-55880000I-3592102J0D01*
G01*
X155992102Y-55880000D02*
G75*
G03X155992102Y-55880000I-3592102J0D01*
G01*
X148372102Y-55880000D02*
G75*
G03X148372102Y-55880000I-3592102J0D01*
G01*
X140752102Y-55880000D02*
G75*
G03X140752102Y-55880000I-3592102J0D01*
G01*
X133132102Y-55880000D02*
G75*
G03X133132102Y-55880000I-3592102J0D01*
G01*
X125512102Y-55880000D02*
G75*
G03X125512102Y-55880000I-3592102J0D01*
G01*
X117892102Y-55880000D02*
G75*
G03X117892102Y-55880000I-3592102J0D01*
G01*
X110272102Y-55880000D02*
G75*
G03X110272102Y-55880000I-3592102J0D01*
G01*
X163612102Y-48260000D02*
G75*
G03X163612102Y-48260000I-3592102J0D01*
G01*
X155992102Y-48260000D02*
G75*
G03X155992102Y-48260000I-3592102J0D01*
G01*
X148372102Y-48260000D02*
G75*
G03X148372102Y-48260000I-3592102J0D01*
G01*
X140752102Y-48260000D02*
G75*
G03X140752102Y-48260000I-3592102J0D01*
G01*
X133132102Y-48260000D02*
G75*
G03X133132102Y-48260000I-3592102J0D01*
G01*
X125512102Y-48260000D02*
G75*
G03X125512102Y-48260000I-3592102J0D01*
G01*
X117892102Y-48260000D02*
G75*
G03X117892102Y-48260000I-3592102J0D01*
G01*
X110272102Y-48260000D02*
G75*
G03X110272102Y-48260000I-3592102J0D01*
G01*
X163612102Y-40640000D02*
G75*
G03X163612102Y-40640000I-3592102J0D01*
G01*
X155992102Y-40640000D02*
G75*
G03X155992102Y-40640000I-3592102J0D01*
G01*
X148372102Y-40640000D02*
G75*
G03X148372102Y-40640000I-3592102J0D01*
G01*
X140752102Y-40640000D02*
G75*
G03X140752102Y-40640000I-3592102J0D01*
G01*
X125512102Y-40640000D02*
G75*
G03X125512102Y-40640000I-3592102J0D01*
G01*
X117892102Y-40640000D02*
G75*
G03X117892102Y-40640000I-3592102J0D01*
G01*
X110272102Y-40640000D02*
G75*
G03X110272102Y-40640000I-3592102J0D01*
G01*
X163612102Y-33020000D02*
G75*
G03X163612102Y-33020000I-3592102J0D01*
G01*
X155992102Y-33020000D02*
G75*
G03X155992102Y-33020000I-3592102J0D01*
G01*
X148372102Y-33020000D02*
G75*
G03X148372102Y-33020000I-3592102J0D01*
G01*
X140752102Y-33020000D02*
G75*
G03X140752102Y-33020000I-3592102J0D01*
G01*
X133132102Y-33020000D02*
G75*
G03X133132102Y-33020000I-3592102J0D01*
G01*
X125512102Y-33020000D02*
G75*
G03X125512102Y-33020000I-3592102J0D01*
G01*
X117892102Y-33020000D02*
G75*
G03X117892102Y-33020000I-3592102J0D01*
G01*
X110272102Y-33020000D02*
G75*
G03X110272102Y-33020000I-3592102J0D01*
G01*
X163612102Y-25400000D02*
G75*
G03X163612102Y-25400000I-3592102J0D01*
G01*
X155992102Y-25400000D02*
G75*
G03X155992102Y-25400000I-3592102J0D01*
G01*
X148372102Y-25400000D02*
G75*
G03X148372102Y-25400000I-3592102J0D01*
G01*
X140752102Y-25400000D02*
G75*
G03X140752102Y-25400000I-3592102J0D01*
G01*
X133132102Y-25400000D02*
G75*
G03X133132102Y-25400000I-3592102J0D01*
G01*
X125512102Y-25400000D02*
G75*
G03X125512102Y-25400000I-3592102J0D01*
G01*
X117892102Y-25400000D02*
G75*
G03X117892102Y-25400000I-3592102J0D01*
G01*
X110272102Y-25400000D02*
G75*
G03X110272102Y-25400000I-3592102J0D01*
G01*
X163612102Y-17780000D02*
G75*
G03X163612102Y-17780000I-3592102J0D01*
G01*
X155992102Y-17780000D02*
G75*
G03X155992102Y-17780000I-3592102J0D01*
G01*
X148372102Y-17780000D02*
G75*
G03X148372102Y-17780000I-3592102J0D01*
G01*
X140752102Y-17780000D02*
G75*
G03X140752102Y-17780000I-3592102J0D01*
G01*
X133132102Y-17780000D02*
G75*
G03X133132102Y-17780000I-3592102J0D01*
G01*
X125512102Y-17780000D02*
G75*
G03X125512102Y-17780000I-3592102J0D01*
G01*
X117892102Y-17780000D02*
G75*
G03X117892102Y-17780000I-3592102J0D01*
G01*
X110272102Y-17780000D02*
G75*
G03X110272102Y-17780000I-3592102J0D01*
G01*
X127902286Y-40023887D02*
X127329866Y-40596307D01*
X127296195Y-40697322D01*
X127296195Y-40764665D01*
X127329866Y-40865681D01*
X127464553Y-41000368D01*
X127565569Y-41034039D01*
X127632912Y-41034039D01*
X127733927Y-41000368D01*
X128306347Y-40427948D01*
X128542049Y-40798337D02*
X128609393Y-40798337D01*
X128710408Y-40832009D01*
X128878767Y-41000368D01*
X128912439Y-41101383D01*
X128912439Y-41168726D01*
X128878767Y-41269742D01*
X128811423Y-41337085D01*
X128676736Y-41404429D01*
X127868614Y-41404429D01*
X128306347Y-41842161D01*
X129114469Y-41842161D02*
X129080797Y-41741146D01*
X129080797Y-41673803D01*
X129114469Y-41572787D01*
X129148141Y-41539116D01*
X129249156Y-41505444D01*
X129316500Y-41505444D01*
X129417515Y-41539116D01*
X129552202Y-41673803D01*
X129585874Y-41774818D01*
X129585874Y-41842161D01*
X129552202Y-41943177D01*
X129518530Y-41976848D01*
X129417515Y-42010520D01*
X129350171Y-42010520D01*
X129249156Y-41976848D01*
X129114469Y-41842161D01*
X129013454Y-41808490D01*
X128946110Y-41808490D01*
X128845095Y-41842161D01*
X128710408Y-41976848D01*
X128676736Y-42077864D01*
X128676736Y-42145207D01*
X128710408Y-42246222D01*
X128845095Y-42380909D01*
X128946110Y-42414581D01*
X129013454Y-42414581D01*
X129114469Y-42380909D01*
X129249156Y-42246222D01*
X129282828Y-42145207D01*
X129282828Y-42077864D01*
X129249156Y-41976848D01*
X158382286Y-70503887D02*
X157809866Y-71076307D01*
X157776195Y-71177322D01*
X157776195Y-71244665D01*
X157809866Y-71345681D01*
X157944553Y-71480368D01*
X158045569Y-71514039D01*
X158112912Y-71514039D01*
X158213927Y-71480368D01*
X158786347Y-70907948D01*
X159426110Y-71547711D02*
X159291423Y-71413024D01*
X159190408Y-71379352D01*
X159123065Y-71379352D01*
X158954706Y-71413024D01*
X158786347Y-71514039D01*
X158516973Y-71783413D01*
X158483301Y-71884429D01*
X158483301Y-71951772D01*
X158516973Y-72052787D01*
X158651660Y-72187474D01*
X158752675Y-72221146D01*
X158820019Y-72221146D01*
X158921034Y-72187474D01*
X159089393Y-72019116D01*
X159123065Y-71918100D01*
X159123065Y-71850757D01*
X159089393Y-71749742D01*
X158954706Y-71615055D01*
X158853691Y-71581383D01*
X158786347Y-71581383D01*
X158685332Y-71615055D01*
X159863843Y-72456848D02*
X159392439Y-72928253D01*
X159964858Y-72019116D02*
X159291423Y-72355833D01*
X159729156Y-72793566D01*
X150762286Y-70503887D02*
X150189866Y-71076307D01*
X150156195Y-71177322D01*
X150156195Y-71244665D01*
X150189866Y-71345681D01*
X150324553Y-71480368D01*
X150425569Y-71514039D01*
X150492912Y-71514039D01*
X150593927Y-71480368D01*
X151166347Y-70907948D01*
X151806110Y-71547711D02*
X151671423Y-71413024D01*
X151570408Y-71379352D01*
X151503065Y-71379352D01*
X151334706Y-71413024D01*
X151166347Y-71514039D01*
X150896973Y-71783413D01*
X150863301Y-71884429D01*
X150863301Y-71951772D01*
X150896973Y-72052787D01*
X151031660Y-72187474D01*
X151132675Y-72221146D01*
X151200019Y-72221146D01*
X151301034Y-72187474D01*
X151469393Y-72019116D01*
X151503065Y-71918100D01*
X151503065Y-71850757D01*
X151469393Y-71749742D01*
X151334706Y-71615055D01*
X151233691Y-71581383D01*
X151166347Y-71581383D01*
X151065332Y-71615055D01*
X152109156Y-71850757D02*
X152546889Y-72288490D01*
X152041813Y-72322161D01*
X152142828Y-72423177D01*
X152176500Y-72524192D01*
X152176500Y-72591535D01*
X152142828Y-72692551D01*
X151974469Y-72860909D01*
X151873454Y-72894581D01*
X151806110Y-72894581D01*
X151705095Y-72860909D01*
X151503065Y-72658879D01*
X151469393Y-72557864D01*
X151469393Y-72490520D01*
X143142286Y-70503887D02*
X142569866Y-71076307D01*
X142536195Y-71177322D01*
X142536195Y-71244665D01*
X142569866Y-71345681D01*
X142704553Y-71480368D01*
X142805569Y-71514039D01*
X142872912Y-71514039D01*
X142973927Y-71480368D01*
X143546347Y-70907948D01*
X144186110Y-71547711D02*
X144051423Y-71413024D01*
X143950408Y-71379352D01*
X143883065Y-71379352D01*
X143714706Y-71413024D01*
X143546347Y-71514039D01*
X143276973Y-71783413D01*
X143243301Y-71884429D01*
X143243301Y-71951772D01*
X143276973Y-72052787D01*
X143411660Y-72187474D01*
X143512675Y-72221146D01*
X143580019Y-72221146D01*
X143681034Y-72187474D01*
X143849393Y-72019116D01*
X143883065Y-71918100D01*
X143883065Y-71850757D01*
X143849393Y-71749742D01*
X143714706Y-71615055D01*
X143613691Y-71581383D01*
X143546347Y-71581383D01*
X143445332Y-71615055D01*
X144455484Y-71951772D02*
X144522828Y-71951772D01*
X144623843Y-71985444D01*
X144792202Y-72153803D01*
X144825874Y-72254818D01*
X144825874Y-72322161D01*
X144792202Y-72423177D01*
X144724858Y-72490520D01*
X144590171Y-72557864D01*
X143782049Y-72557864D01*
X144219782Y-72995596D01*
X135522286Y-70503887D02*
X134949866Y-71076307D01*
X134916195Y-71177322D01*
X134916195Y-71244665D01*
X134949866Y-71345681D01*
X135084553Y-71480368D01*
X135185569Y-71514039D01*
X135252912Y-71514039D01*
X135353927Y-71480368D01*
X135926347Y-70907948D01*
X136566110Y-71547711D02*
X136431423Y-71413024D01*
X136330408Y-71379352D01*
X136263065Y-71379352D01*
X136094706Y-71413024D01*
X135926347Y-71514039D01*
X135656973Y-71783413D01*
X135623301Y-71884429D01*
X135623301Y-71951772D01*
X135656973Y-72052787D01*
X135791660Y-72187474D01*
X135892675Y-72221146D01*
X135960019Y-72221146D01*
X136061034Y-72187474D01*
X136229393Y-72019116D01*
X136263065Y-71918100D01*
X136263065Y-71850757D01*
X136229393Y-71749742D01*
X136094706Y-71615055D01*
X135993691Y-71581383D01*
X135926347Y-71581383D01*
X135825332Y-71615055D01*
X136599782Y-72995596D02*
X136195721Y-72591535D01*
X136397752Y-72793566D02*
X137104858Y-72086459D01*
X136936500Y-72120131D01*
X136801813Y-72120131D01*
X136700797Y-72086459D01*
X127902286Y-70503887D02*
X127329866Y-71076307D01*
X127296195Y-71177322D01*
X127296195Y-71244665D01*
X127329866Y-71345681D01*
X127464553Y-71480368D01*
X127565569Y-71514039D01*
X127632912Y-71514039D01*
X127733927Y-71480368D01*
X128306347Y-70907948D01*
X128946110Y-71547711D02*
X128811423Y-71413024D01*
X128710408Y-71379352D01*
X128643065Y-71379352D01*
X128474706Y-71413024D01*
X128306347Y-71514039D01*
X128036973Y-71783413D01*
X128003301Y-71884429D01*
X128003301Y-71951772D01*
X128036973Y-72052787D01*
X128171660Y-72187474D01*
X128272675Y-72221146D01*
X128340019Y-72221146D01*
X128441034Y-72187474D01*
X128609393Y-72019116D01*
X128643065Y-71918100D01*
X128643065Y-71850757D01*
X128609393Y-71749742D01*
X128474706Y-71615055D01*
X128373691Y-71581383D01*
X128306347Y-71581383D01*
X128205332Y-71615055D01*
X129451187Y-72052787D02*
X129518530Y-72120131D01*
X129552202Y-72221146D01*
X129552202Y-72288490D01*
X129518530Y-72389505D01*
X129417515Y-72557864D01*
X129249156Y-72726222D01*
X129080797Y-72827238D01*
X128979782Y-72860909D01*
X128912439Y-72860909D01*
X128811423Y-72827238D01*
X128744080Y-72759894D01*
X128710408Y-72658879D01*
X128710408Y-72591535D01*
X128744080Y-72490520D01*
X128845095Y-72322161D01*
X129013454Y-72153803D01*
X129181813Y-72052787D01*
X129282828Y-72019116D01*
X129350171Y-72019116D01*
X129451187Y-72052787D01*
X120282286Y-70503887D02*
X119709866Y-71076307D01*
X119676195Y-71177322D01*
X119676195Y-71244665D01*
X119709866Y-71345681D01*
X119844553Y-71480368D01*
X119945569Y-71514039D01*
X120012912Y-71514039D01*
X120113927Y-71480368D01*
X120686347Y-70907948D01*
X121359782Y-71581383D02*
X121023065Y-71244665D01*
X120652675Y-71547711D01*
X120720019Y-71547711D01*
X120821034Y-71581383D01*
X120989393Y-71749742D01*
X121023065Y-71850757D01*
X121023065Y-71918100D01*
X120989393Y-72019116D01*
X120821034Y-72187474D01*
X120720019Y-72221146D01*
X120652675Y-72221146D01*
X120551660Y-72187474D01*
X120383301Y-72019116D01*
X120349630Y-71918100D01*
X120349630Y-71850757D01*
X121023065Y-72658879D02*
X121157752Y-72793566D01*
X121258767Y-72827238D01*
X121326110Y-72827238D01*
X121494469Y-72793566D01*
X121662828Y-72692551D01*
X121932202Y-72423177D01*
X121965874Y-72322161D01*
X121965874Y-72254818D01*
X121932202Y-72153803D01*
X121797515Y-72019116D01*
X121696500Y-71985444D01*
X121629156Y-71985444D01*
X121528141Y-72019116D01*
X121359782Y-72187474D01*
X121326110Y-72288490D01*
X121326110Y-72355833D01*
X121359782Y-72456848D01*
X121494469Y-72591535D01*
X121595484Y-72625207D01*
X121662828Y-72625207D01*
X121763843Y-72591535D01*
X112662286Y-70503887D02*
X112089866Y-71076307D01*
X112056195Y-71177322D01*
X112056195Y-71244665D01*
X112089866Y-71345681D01*
X112224553Y-71480368D01*
X112325569Y-71514039D01*
X112392912Y-71514039D01*
X112493927Y-71480368D01*
X113066347Y-70907948D01*
X113739782Y-71581383D02*
X113403065Y-71244665D01*
X113032675Y-71547711D01*
X113100019Y-71547711D01*
X113201034Y-71581383D01*
X113369393Y-71749742D01*
X113403065Y-71850757D01*
X113403065Y-71918100D01*
X113369393Y-72019116D01*
X113201034Y-72187474D01*
X113100019Y-72221146D01*
X113032675Y-72221146D01*
X112931660Y-72187474D01*
X112763301Y-72019116D01*
X112729630Y-71918100D01*
X112729630Y-71850757D01*
X113874469Y-72322161D02*
X113840797Y-72221146D01*
X113840797Y-72153803D01*
X113874469Y-72052787D01*
X113908141Y-72019116D01*
X114009156Y-71985444D01*
X114076500Y-71985444D01*
X114177515Y-72019116D01*
X114312202Y-72153803D01*
X114345874Y-72254818D01*
X114345874Y-72322161D01*
X114312202Y-72423177D01*
X114278530Y-72456848D01*
X114177515Y-72490520D01*
X114110171Y-72490520D01*
X114009156Y-72456848D01*
X113874469Y-72322161D01*
X113773454Y-72288490D01*
X113706110Y-72288490D01*
X113605095Y-72322161D01*
X113470408Y-72456848D01*
X113436736Y-72557864D01*
X113436736Y-72625207D01*
X113470408Y-72726222D01*
X113605095Y-72860909D01*
X113706110Y-72894581D01*
X113773454Y-72894581D01*
X113874469Y-72860909D01*
X114009156Y-72726222D01*
X114042828Y-72625207D01*
X114042828Y-72557864D01*
X114009156Y-72456848D01*
X105042286Y-70503887D02*
X104469866Y-71076307D01*
X104436195Y-71177322D01*
X104436195Y-71244665D01*
X104469866Y-71345681D01*
X104604553Y-71480368D01*
X104705569Y-71514039D01*
X104772912Y-71514039D01*
X104873927Y-71480368D01*
X105446347Y-70907948D01*
X106119782Y-71581383D02*
X105783065Y-71244665D01*
X105412675Y-71547711D01*
X105480019Y-71547711D01*
X105581034Y-71581383D01*
X105749393Y-71749742D01*
X105783065Y-71850757D01*
X105783065Y-71918100D01*
X105749393Y-72019116D01*
X105581034Y-72187474D01*
X105480019Y-72221146D01*
X105412675Y-72221146D01*
X105311660Y-72187474D01*
X105143301Y-72019116D01*
X105109630Y-71918100D01*
X105109630Y-71850757D01*
X106389156Y-71850757D02*
X106860561Y-72322161D01*
X105850408Y-72726222D01*
X158382286Y-62883887D02*
X157809866Y-63456307D01*
X157776195Y-63557322D01*
X157776195Y-63624665D01*
X157809866Y-63725681D01*
X157944553Y-63860368D01*
X158045569Y-63894039D01*
X158112912Y-63894039D01*
X158213927Y-63860368D01*
X158786347Y-63287948D01*
X159459782Y-63961383D02*
X159123065Y-63624665D01*
X158752675Y-63927711D01*
X158820019Y-63927711D01*
X158921034Y-63961383D01*
X159089393Y-64129742D01*
X159123065Y-64230757D01*
X159123065Y-64298100D01*
X159089393Y-64399116D01*
X158921034Y-64567474D01*
X158820019Y-64601146D01*
X158752675Y-64601146D01*
X158651660Y-64567474D01*
X158483301Y-64399116D01*
X158449630Y-64298100D01*
X158449630Y-64230757D01*
X160099545Y-64601146D02*
X159964858Y-64466459D01*
X159863843Y-64432787D01*
X159796500Y-64432787D01*
X159628141Y-64466459D01*
X159459782Y-64567474D01*
X159190408Y-64836848D01*
X159156736Y-64937864D01*
X159156736Y-65005207D01*
X159190408Y-65106222D01*
X159325095Y-65240909D01*
X159426110Y-65274581D01*
X159493454Y-65274581D01*
X159594469Y-65240909D01*
X159762828Y-65072551D01*
X159796500Y-64971535D01*
X159796500Y-64904192D01*
X159762828Y-64803177D01*
X159628141Y-64668490D01*
X159527126Y-64634818D01*
X159459782Y-64634818D01*
X159358767Y-64668490D01*
X150762286Y-62883887D02*
X150189866Y-63456307D01*
X150156195Y-63557322D01*
X150156195Y-63624665D01*
X150189866Y-63725681D01*
X150324553Y-63860368D01*
X150425569Y-63894039D01*
X150492912Y-63894039D01*
X150593927Y-63860368D01*
X151166347Y-63287948D01*
X151839782Y-63961383D02*
X151503065Y-63624665D01*
X151132675Y-63927711D01*
X151200019Y-63927711D01*
X151301034Y-63961383D01*
X151469393Y-64129742D01*
X151503065Y-64230757D01*
X151503065Y-64298100D01*
X151469393Y-64399116D01*
X151301034Y-64567474D01*
X151200019Y-64601146D01*
X151132675Y-64601146D01*
X151031660Y-64567474D01*
X150863301Y-64399116D01*
X150829630Y-64298100D01*
X150829630Y-64230757D01*
X152513217Y-64634818D02*
X152176500Y-64298100D01*
X151806110Y-64601146D01*
X151873454Y-64601146D01*
X151974469Y-64634818D01*
X152142828Y-64803177D01*
X152176500Y-64904192D01*
X152176500Y-64971535D01*
X152142828Y-65072551D01*
X151974469Y-65240909D01*
X151873454Y-65274581D01*
X151806110Y-65274581D01*
X151705095Y-65240909D01*
X151536736Y-65072551D01*
X151503065Y-64971535D01*
X151503065Y-64904192D01*
X143142286Y-62883887D02*
X142569866Y-63456307D01*
X142536195Y-63557322D01*
X142536195Y-63624665D01*
X142569866Y-63725681D01*
X142704553Y-63860368D01*
X142805569Y-63894039D01*
X142872912Y-63894039D01*
X142973927Y-63860368D01*
X143546347Y-63287948D01*
X144219782Y-63961383D02*
X143883065Y-63624665D01*
X143512675Y-63927711D01*
X143580019Y-63927711D01*
X143681034Y-63961383D01*
X143849393Y-64129742D01*
X143883065Y-64230757D01*
X143883065Y-64298100D01*
X143849393Y-64399116D01*
X143681034Y-64567474D01*
X143580019Y-64601146D01*
X143512675Y-64601146D01*
X143411660Y-64567474D01*
X143243301Y-64399116D01*
X143209630Y-64298100D01*
X143209630Y-64230757D01*
X144623843Y-64836848D02*
X144152439Y-65308253D01*
X144724858Y-64399116D02*
X144051423Y-64735833D01*
X144489156Y-65173566D01*
X135522286Y-62883887D02*
X134949866Y-63456307D01*
X134916195Y-63557322D01*
X134916195Y-63624665D01*
X134949866Y-63725681D01*
X135084553Y-63860368D01*
X135185569Y-63894039D01*
X135252912Y-63894039D01*
X135353927Y-63860368D01*
X135926347Y-63287948D01*
X136599782Y-63961383D02*
X136263065Y-63624665D01*
X135892675Y-63927711D01*
X135960019Y-63927711D01*
X136061034Y-63961383D01*
X136229393Y-64129742D01*
X136263065Y-64230757D01*
X136263065Y-64298100D01*
X136229393Y-64399116D01*
X136061034Y-64567474D01*
X135960019Y-64601146D01*
X135892675Y-64601146D01*
X135791660Y-64567474D01*
X135623301Y-64399116D01*
X135589630Y-64298100D01*
X135589630Y-64230757D01*
X136869156Y-64230757D02*
X137306889Y-64668490D01*
X136801813Y-64702161D01*
X136902828Y-64803177D01*
X136936500Y-64904192D01*
X136936500Y-64971535D01*
X136902828Y-65072551D01*
X136734469Y-65240909D01*
X136633454Y-65274581D01*
X136566110Y-65274581D01*
X136465095Y-65240909D01*
X136263065Y-65038879D01*
X136229393Y-64937864D01*
X136229393Y-64870520D01*
X127902286Y-62883887D02*
X127329866Y-63456307D01*
X127296195Y-63557322D01*
X127296195Y-63624665D01*
X127329866Y-63725681D01*
X127464553Y-63860368D01*
X127565569Y-63894039D01*
X127632912Y-63894039D01*
X127733927Y-63860368D01*
X128306347Y-63287948D01*
X128979782Y-63961383D02*
X128643065Y-63624665D01*
X128272675Y-63927711D01*
X128340019Y-63927711D01*
X128441034Y-63961383D01*
X128609393Y-64129742D01*
X128643065Y-64230757D01*
X128643065Y-64298100D01*
X128609393Y-64399116D01*
X128441034Y-64567474D01*
X128340019Y-64601146D01*
X128272675Y-64601146D01*
X128171660Y-64567474D01*
X128003301Y-64399116D01*
X127969630Y-64298100D01*
X127969630Y-64230757D01*
X129215484Y-64331772D02*
X129282828Y-64331772D01*
X129383843Y-64365444D01*
X129552202Y-64533803D01*
X129585874Y-64634818D01*
X129585874Y-64702161D01*
X129552202Y-64803177D01*
X129484858Y-64870520D01*
X129350171Y-64937864D01*
X128542049Y-64937864D01*
X128979782Y-65375596D01*
X120282286Y-62883887D02*
X119709866Y-63456307D01*
X119676195Y-63557322D01*
X119676195Y-63624665D01*
X119709866Y-63725681D01*
X119844553Y-63860368D01*
X119945569Y-63894039D01*
X120012912Y-63894039D01*
X120113927Y-63860368D01*
X120686347Y-63287948D01*
X121359782Y-63961383D02*
X121023065Y-63624665D01*
X120652675Y-63927711D01*
X120720019Y-63927711D01*
X120821034Y-63961383D01*
X120989393Y-64129742D01*
X121023065Y-64230757D01*
X121023065Y-64298100D01*
X120989393Y-64399116D01*
X120821034Y-64567474D01*
X120720019Y-64601146D01*
X120652675Y-64601146D01*
X120551660Y-64567474D01*
X120383301Y-64399116D01*
X120349630Y-64298100D01*
X120349630Y-64230757D01*
X121359782Y-65375596D02*
X120955721Y-64971535D01*
X121157752Y-65173566D02*
X121864858Y-64466459D01*
X121696500Y-64500131D01*
X121561813Y-64500131D01*
X121460797Y-64466459D01*
X112662286Y-62883887D02*
X112089866Y-63456307D01*
X112056195Y-63557322D01*
X112056195Y-63624665D01*
X112089866Y-63725681D01*
X112224553Y-63860368D01*
X112325569Y-63894039D01*
X112392912Y-63894039D01*
X112493927Y-63860368D01*
X113066347Y-63287948D01*
X113739782Y-63961383D02*
X113403065Y-63624665D01*
X113032675Y-63927711D01*
X113100019Y-63927711D01*
X113201034Y-63961383D01*
X113369393Y-64129742D01*
X113403065Y-64230757D01*
X113403065Y-64298100D01*
X113369393Y-64399116D01*
X113201034Y-64567474D01*
X113100019Y-64601146D01*
X113032675Y-64601146D01*
X112931660Y-64567474D01*
X112763301Y-64399116D01*
X112729630Y-64298100D01*
X112729630Y-64230757D01*
X114211187Y-64432787D02*
X114278530Y-64500131D01*
X114312202Y-64601146D01*
X114312202Y-64668490D01*
X114278530Y-64769505D01*
X114177515Y-64937864D01*
X114009156Y-65106222D01*
X113840797Y-65207238D01*
X113739782Y-65240909D01*
X113672439Y-65240909D01*
X113571423Y-65207238D01*
X113504080Y-65139894D01*
X113470408Y-65038879D01*
X113470408Y-64971535D01*
X113504080Y-64870520D01*
X113605095Y-64702161D01*
X113773454Y-64533803D01*
X113941813Y-64432787D01*
X114042828Y-64399116D01*
X114110171Y-64399116D01*
X114211187Y-64432787D01*
X105042286Y-62935989D02*
X104469866Y-63508409D01*
X104436195Y-63609424D01*
X104436195Y-63676767D01*
X104469866Y-63777783D01*
X104604553Y-63912470D01*
X104705569Y-63946141D01*
X104772912Y-63946141D01*
X104873927Y-63912470D01*
X105446347Y-63340050D01*
X105850408Y-64215515D02*
X105379004Y-64686920D01*
X105951423Y-63777783D02*
X105277988Y-64114500D01*
X105715721Y-64552233D01*
X105783065Y-65090981D02*
X105917752Y-65225668D01*
X106018767Y-65259340D01*
X106086110Y-65259340D01*
X106254469Y-65225668D01*
X106422828Y-65124653D01*
X106692202Y-64855279D01*
X106725874Y-64754263D01*
X106725874Y-64686920D01*
X106692202Y-64585905D01*
X106557515Y-64451218D01*
X106456500Y-64417546D01*
X106389156Y-64417546D01*
X106288141Y-64451218D01*
X106119782Y-64619576D01*
X106086110Y-64720592D01*
X106086110Y-64787935D01*
X106119782Y-64888950D01*
X106254469Y-65023637D01*
X106355484Y-65057309D01*
X106422828Y-65057309D01*
X106523843Y-65023637D01*
X158382286Y-55263887D02*
X157809866Y-55836307D01*
X157776195Y-55937322D01*
X157776195Y-56004665D01*
X157809866Y-56105681D01*
X157944553Y-56240368D01*
X158045569Y-56274039D01*
X158112912Y-56274039D01*
X158213927Y-56240368D01*
X158786347Y-55667948D01*
X159190408Y-56543413D02*
X158719004Y-57014818D01*
X159291423Y-56105681D02*
X158617988Y-56442398D01*
X159055721Y-56880131D01*
X159594469Y-57082161D02*
X159560797Y-56981146D01*
X159560797Y-56913803D01*
X159594469Y-56812787D01*
X159628141Y-56779116D01*
X159729156Y-56745444D01*
X159796500Y-56745444D01*
X159897515Y-56779116D01*
X160032202Y-56913803D01*
X160065874Y-57014818D01*
X160065874Y-57082161D01*
X160032202Y-57183177D01*
X159998530Y-57216848D01*
X159897515Y-57250520D01*
X159830171Y-57250520D01*
X159729156Y-57216848D01*
X159594469Y-57082161D01*
X159493454Y-57048490D01*
X159426110Y-57048490D01*
X159325095Y-57082161D01*
X159190408Y-57216848D01*
X159156736Y-57317864D01*
X159156736Y-57385207D01*
X159190408Y-57486222D01*
X159325095Y-57620909D01*
X159426110Y-57654581D01*
X159493454Y-57654581D01*
X159594469Y-57620909D01*
X159729156Y-57486222D01*
X159762828Y-57385207D01*
X159762828Y-57317864D01*
X159729156Y-57216848D01*
X150762286Y-55263887D02*
X150189866Y-55836307D01*
X150156195Y-55937322D01*
X150156195Y-56004665D01*
X150189866Y-56105681D01*
X150324553Y-56240368D01*
X150425569Y-56274039D01*
X150492912Y-56274039D01*
X150593927Y-56240368D01*
X151166347Y-55667948D01*
X151570408Y-56543413D02*
X151099004Y-57014818D01*
X151671423Y-56105681D02*
X150997988Y-56442398D01*
X151435721Y-56880131D01*
X152109156Y-56610757D02*
X152580561Y-57082161D01*
X151570408Y-57486222D01*
X143142286Y-55263887D02*
X142569866Y-55836307D01*
X142536195Y-55937322D01*
X142536195Y-56004665D01*
X142569866Y-56105681D01*
X142704553Y-56240368D01*
X142805569Y-56274039D01*
X142872912Y-56274039D01*
X142973927Y-56240368D01*
X143546347Y-55667948D01*
X143950408Y-56543413D02*
X143479004Y-57014818D01*
X144051423Y-56105681D02*
X143377988Y-56442398D01*
X143815721Y-56880131D01*
X144859545Y-56981146D02*
X144724858Y-56846459D01*
X144623843Y-56812787D01*
X144556500Y-56812787D01*
X144388141Y-56846459D01*
X144219782Y-56947474D01*
X143950408Y-57216848D01*
X143916736Y-57317864D01*
X143916736Y-57385207D01*
X143950408Y-57486222D01*
X144085095Y-57620909D01*
X144186110Y-57654581D01*
X144253454Y-57654581D01*
X144354469Y-57620909D01*
X144522828Y-57452551D01*
X144556500Y-57351535D01*
X144556500Y-57284192D01*
X144522828Y-57183177D01*
X144388141Y-57048490D01*
X144287126Y-57014818D01*
X144219782Y-57014818D01*
X144118767Y-57048490D01*
X135522286Y-55263887D02*
X134949866Y-55836307D01*
X134916195Y-55937322D01*
X134916195Y-56004665D01*
X134949866Y-56105681D01*
X135084553Y-56240368D01*
X135185569Y-56274039D01*
X135252912Y-56274039D01*
X135353927Y-56240368D01*
X135926347Y-55667948D01*
X136330408Y-56543413D02*
X135859004Y-57014818D01*
X136431423Y-56105681D02*
X135757988Y-56442398D01*
X136195721Y-56880131D01*
X137273217Y-57014818D02*
X136936500Y-56678100D01*
X136566110Y-56981146D01*
X136633454Y-56981146D01*
X136734469Y-57014818D01*
X136902828Y-57183177D01*
X136936500Y-57284192D01*
X136936500Y-57351535D01*
X136902828Y-57452551D01*
X136734469Y-57620909D01*
X136633454Y-57654581D01*
X136566110Y-57654581D01*
X136465095Y-57620909D01*
X136296736Y-57452551D01*
X136263065Y-57351535D01*
X136263065Y-57284192D01*
X127902286Y-55263887D02*
X127329866Y-55836307D01*
X127296195Y-55937322D01*
X127296195Y-56004665D01*
X127329866Y-56105681D01*
X127464553Y-56240368D01*
X127565569Y-56274039D01*
X127632912Y-56274039D01*
X127733927Y-56240368D01*
X128306347Y-55667948D01*
X128710408Y-56543413D02*
X128239004Y-57014818D01*
X128811423Y-56105681D02*
X128137988Y-56442398D01*
X128575721Y-56880131D01*
X129383843Y-57216848D02*
X128912439Y-57688253D01*
X129484858Y-56779116D02*
X128811423Y-57115833D01*
X129249156Y-57553566D01*
X120282286Y-55263887D02*
X119709866Y-55836307D01*
X119676195Y-55937322D01*
X119676195Y-56004665D01*
X119709866Y-56105681D01*
X119844553Y-56240368D01*
X119945569Y-56274039D01*
X120012912Y-56274039D01*
X120113927Y-56240368D01*
X120686347Y-55667948D01*
X121090408Y-56543413D02*
X120619004Y-57014818D01*
X121191423Y-56105681D02*
X120517988Y-56442398D01*
X120955721Y-56880131D01*
X121629156Y-56610757D02*
X122066889Y-57048490D01*
X121561813Y-57082161D01*
X121662828Y-57183177D01*
X121696500Y-57284192D01*
X121696500Y-57351535D01*
X121662828Y-57452551D01*
X121494469Y-57620909D01*
X121393454Y-57654581D01*
X121326110Y-57654581D01*
X121225095Y-57620909D01*
X121023065Y-57418879D01*
X120989393Y-57317864D01*
X120989393Y-57250520D01*
X112662286Y-55263887D02*
X112089866Y-55836307D01*
X112056195Y-55937322D01*
X112056195Y-56004665D01*
X112089866Y-56105681D01*
X112224553Y-56240368D01*
X112325569Y-56274039D01*
X112392912Y-56274039D01*
X112493927Y-56240368D01*
X113066347Y-55667948D01*
X113470408Y-56543413D02*
X112999004Y-57014818D01*
X113571423Y-56105681D02*
X112897988Y-56442398D01*
X113335721Y-56880131D01*
X113975484Y-56711772D02*
X114042828Y-56711772D01*
X114143843Y-56745444D01*
X114312202Y-56913803D01*
X114345874Y-57014818D01*
X114345874Y-57082161D01*
X114312202Y-57183177D01*
X114244858Y-57250520D01*
X114110171Y-57317864D01*
X113302049Y-57317864D01*
X113739782Y-57755596D01*
X105042286Y-55263887D02*
X104469866Y-55836307D01*
X104436195Y-55937322D01*
X104436195Y-56004665D01*
X104469866Y-56105681D01*
X104604553Y-56240368D01*
X104705569Y-56274039D01*
X104772912Y-56274039D01*
X104873927Y-56240368D01*
X105446347Y-55667948D01*
X105850408Y-56543413D02*
X105379004Y-57014818D01*
X105951423Y-56105681D02*
X105277988Y-56442398D01*
X105715721Y-56880131D01*
X106119782Y-57755596D02*
X105715721Y-57351535D01*
X105917752Y-57553566D02*
X106624858Y-56846459D01*
X106456500Y-56880131D01*
X106321813Y-56880131D01*
X106220797Y-56846459D01*
X158382286Y-47643887D02*
X157809866Y-48216307D01*
X157776195Y-48317322D01*
X157776195Y-48384665D01*
X157809866Y-48485681D01*
X157944553Y-48620368D01*
X158045569Y-48654039D01*
X158112912Y-48654039D01*
X158213927Y-48620368D01*
X158786347Y-48047948D01*
X159190408Y-48923413D02*
X158719004Y-49394818D01*
X159291423Y-48485681D02*
X158617988Y-48822398D01*
X159055721Y-49260131D01*
X159931187Y-49192787D02*
X159998530Y-49260131D01*
X160032202Y-49361146D01*
X160032202Y-49428490D01*
X159998530Y-49529505D01*
X159897515Y-49697864D01*
X159729156Y-49866222D01*
X159560797Y-49967238D01*
X159459782Y-50000909D01*
X159392439Y-50000909D01*
X159291423Y-49967238D01*
X159224080Y-49899894D01*
X159190408Y-49798879D01*
X159190408Y-49731535D01*
X159224080Y-49630520D01*
X159325095Y-49462161D01*
X159493454Y-49293803D01*
X159661813Y-49192787D01*
X159762828Y-49159116D01*
X159830171Y-49159116D01*
X159931187Y-49192787D01*
X150762286Y-47643887D02*
X150189866Y-48216307D01*
X150156195Y-48317322D01*
X150156195Y-48384665D01*
X150189866Y-48485681D01*
X150324553Y-48620368D01*
X150425569Y-48654039D01*
X150492912Y-48654039D01*
X150593927Y-48620368D01*
X151166347Y-48047948D01*
X151435721Y-48317322D02*
X151873454Y-48755055D01*
X151368378Y-48788726D01*
X151469393Y-48889742D01*
X151503065Y-48990757D01*
X151503065Y-49058100D01*
X151469393Y-49159116D01*
X151301034Y-49327474D01*
X151200019Y-49361146D01*
X151132675Y-49361146D01*
X151031660Y-49327474D01*
X150829630Y-49125444D01*
X150795958Y-49024429D01*
X150795958Y-48957085D01*
X151503065Y-49798879D02*
X151637752Y-49933566D01*
X151738767Y-49967238D01*
X151806110Y-49967238D01*
X151974469Y-49933566D01*
X152142828Y-49832551D01*
X152412202Y-49563177D01*
X152445874Y-49462161D01*
X152445874Y-49394818D01*
X152412202Y-49293803D01*
X152277515Y-49159116D01*
X152176500Y-49125444D01*
X152109156Y-49125444D01*
X152008141Y-49159116D01*
X151839782Y-49327474D01*
X151806110Y-49428490D01*
X151806110Y-49495833D01*
X151839782Y-49596848D01*
X151974469Y-49731535D01*
X152075484Y-49765207D01*
X152142828Y-49765207D01*
X152243843Y-49731535D01*
X143142286Y-47643887D02*
X142569866Y-48216307D01*
X142536195Y-48317322D01*
X142536195Y-48384665D01*
X142569866Y-48485681D01*
X142704553Y-48620368D01*
X142805569Y-48654039D01*
X142872912Y-48654039D01*
X142973927Y-48620368D01*
X143546347Y-48047948D01*
X143815721Y-48317322D02*
X144253454Y-48755055D01*
X143748378Y-48788726D01*
X143849393Y-48889742D01*
X143883065Y-48990757D01*
X143883065Y-49058100D01*
X143849393Y-49159116D01*
X143681034Y-49327474D01*
X143580019Y-49361146D01*
X143512675Y-49361146D01*
X143411660Y-49327474D01*
X143209630Y-49125444D01*
X143175958Y-49024429D01*
X143175958Y-48957085D01*
X144354469Y-49462161D02*
X144320797Y-49361146D01*
X144320797Y-49293803D01*
X144354469Y-49192787D01*
X144388141Y-49159116D01*
X144489156Y-49125444D01*
X144556500Y-49125444D01*
X144657515Y-49159116D01*
X144792202Y-49293803D01*
X144825874Y-49394818D01*
X144825874Y-49462161D01*
X144792202Y-49563177D01*
X144758530Y-49596848D01*
X144657515Y-49630520D01*
X144590171Y-49630520D01*
X144489156Y-49596848D01*
X144354469Y-49462161D01*
X144253454Y-49428490D01*
X144186110Y-49428490D01*
X144085095Y-49462161D01*
X143950408Y-49596848D01*
X143916736Y-49697864D01*
X143916736Y-49765207D01*
X143950408Y-49866222D01*
X144085095Y-50000909D01*
X144186110Y-50034581D01*
X144253454Y-50034581D01*
X144354469Y-50000909D01*
X144489156Y-49866222D01*
X144522828Y-49765207D01*
X144522828Y-49697864D01*
X144489156Y-49596848D01*
X135522286Y-47643887D02*
X134949866Y-48216307D01*
X134916195Y-48317322D01*
X134916195Y-48384665D01*
X134949866Y-48485681D01*
X135084553Y-48620368D01*
X135185569Y-48654039D01*
X135252912Y-48654039D01*
X135353927Y-48620368D01*
X135926347Y-48047948D01*
X136195721Y-48317322D02*
X136633454Y-48755055D01*
X136128378Y-48788726D01*
X136229393Y-48889742D01*
X136263065Y-48990757D01*
X136263065Y-49058100D01*
X136229393Y-49159116D01*
X136061034Y-49327474D01*
X135960019Y-49361146D01*
X135892675Y-49361146D01*
X135791660Y-49327474D01*
X135589630Y-49125444D01*
X135555958Y-49024429D01*
X135555958Y-48957085D01*
X136869156Y-48990757D02*
X137340561Y-49462161D01*
X136330408Y-49866222D01*
X127902286Y-47643887D02*
X127329866Y-48216307D01*
X127296195Y-48317322D01*
X127296195Y-48384665D01*
X127329866Y-48485681D01*
X127464553Y-48620368D01*
X127565569Y-48654039D01*
X127632912Y-48654039D01*
X127733927Y-48620368D01*
X128306347Y-48047948D01*
X128575721Y-48317322D02*
X129013454Y-48755055D01*
X128508378Y-48788726D01*
X128609393Y-48889742D01*
X128643065Y-48990757D01*
X128643065Y-49058100D01*
X128609393Y-49159116D01*
X128441034Y-49327474D01*
X128340019Y-49361146D01*
X128272675Y-49361146D01*
X128171660Y-49327474D01*
X127969630Y-49125444D01*
X127935958Y-49024429D01*
X127935958Y-48957085D01*
X129619545Y-49361146D02*
X129484858Y-49226459D01*
X129383843Y-49192787D01*
X129316500Y-49192787D01*
X129148141Y-49226459D01*
X128979782Y-49327474D01*
X128710408Y-49596848D01*
X128676736Y-49697864D01*
X128676736Y-49765207D01*
X128710408Y-49866222D01*
X128845095Y-50000909D01*
X128946110Y-50034581D01*
X129013454Y-50034581D01*
X129114469Y-50000909D01*
X129282828Y-49832551D01*
X129316500Y-49731535D01*
X129316500Y-49664192D01*
X129282828Y-49563177D01*
X129148141Y-49428490D01*
X129047126Y-49394818D01*
X128979782Y-49394818D01*
X128878767Y-49428490D01*
X120282286Y-47643887D02*
X119709866Y-48216307D01*
X119676195Y-48317322D01*
X119676195Y-48384665D01*
X119709866Y-48485681D01*
X119844553Y-48620368D01*
X119945569Y-48654039D01*
X120012912Y-48654039D01*
X120113927Y-48620368D01*
X120686347Y-48047948D01*
X120955721Y-48317322D02*
X121393454Y-48755055D01*
X120888378Y-48788726D01*
X120989393Y-48889742D01*
X121023065Y-48990757D01*
X121023065Y-49058100D01*
X120989393Y-49159116D01*
X120821034Y-49327474D01*
X120720019Y-49361146D01*
X120652675Y-49361146D01*
X120551660Y-49327474D01*
X120349630Y-49125444D01*
X120315958Y-49024429D01*
X120315958Y-48957085D01*
X122033217Y-49394818D02*
X121696500Y-49058100D01*
X121326110Y-49361146D01*
X121393454Y-49361146D01*
X121494469Y-49394818D01*
X121662828Y-49563177D01*
X121696500Y-49664192D01*
X121696500Y-49731535D01*
X121662828Y-49832551D01*
X121494469Y-50000909D01*
X121393454Y-50034581D01*
X121326110Y-50034581D01*
X121225095Y-50000909D01*
X121056736Y-49832551D01*
X121023065Y-49731535D01*
X121023065Y-49664192D01*
X112662286Y-47643887D02*
X112089866Y-48216307D01*
X112056195Y-48317322D01*
X112056195Y-48384665D01*
X112089866Y-48485681D01*
X112224553Y-48620368D01*
X112325569Y-48654039D01*
X112392912Y-48654039D01*
X112493927Y-48620368D01*
X113066347Y-48047948D01*
X113335721Y-48317322D02*
X113773454Y-48755055D01*
X113268378Y-48788726D01*
X113369393Y-48889742D01*
X113403065Y-48990757D01*
X113403065Y-49058100D01*
X113369393Y-49159116D01*
X113201034Y-49327474D01*
X113100019Y-49361146D01*
X113032675Y-49361146D01*
X112931660Y-49327474D01*
X112729630Y-49125444D01*
X112695958Y-49024429D01*
X112695958Y-48957085D01*
X114143843Y-49596848D02*
X113672439Y-50068253D01*
X114244858Y-49159116D02*
X113571423Y-49495833D01*
X114009156Y-49933566D01*
X105042286Y-47643887D02*
X104469866Y-48216307D01*
X104436195Y-48317322D01*
X104436195Y-48384665D01*
X104469866Y-48485681D01*
X104604553Y-48620368D01*
X104705569Y-48654039D01*
X104772912Y-48654039D01*
X104873927Y-48620368D01*
X105446347Y-48047948D01*
X105715721Y-48317322D02*
X106153454Y-48755055D01*
X105648378Y-48788726D01*
X105749393Y-48889742D01*
X105783065Y-48990757D01*
X105783065Y-49058100D01*
X105749393Y-49159116D01*
X105581034Y-49327474D01*
X105480019Y-49361146D01*
X105412675Y-49361146D01*
X105311660Y-49327474D01*
X105109630Y-49125444D01*
X105075958Y-49024429D01*
X105075958Y-48957085D01*
X106389156Y-48990757D02*
X106826889Y-49428490D01*
X106321813Y-49462161D01*
X106422828Y-49563177D01*
X106456500Y-49664192D01*
X106456500Y-49731535D01*
X106422828Y-49832551D01*
X106254469Y-50000909D01*
X106153454Y-50034581D01*
X106086110Y-50034581D01*
X105985095Y-50000909D01*
X105783065Y-49798879D01*
X105749393Y-49697864D01*
X105749393Y-49630520D01*
X158382286Y-40023887D02*
X157809866Y-40596307D01*
X157776195Y-40697322D01*
X157776195Y-40764665D01*
X157809866Y-40865681D01*
X157944553Y-41000368D01*
X158045569Y-41034039D01*
X158112912Y-41034039D01*
X158213927Y-41000368D01*
X158786347Y-40427948D01*
X159055721Y-40697322D02*
X159493454Y-41135055D01*
X158988378Y-41168726D01*
X159089393Y-41269742D01*
X159123065Y-41370757D01*
X159123065Y-41438100D01*
X159089393Y-41539116D01*
X158921034Y-41707474D01*
X158820019Y-41741146D01*
X158752675Y-41741146D01*
X158651660Y-41707474D01*
X158449630Y-41505444D01*
X158415958Y-41404429D01*
X158415958Y-41337085D01*
X159695484Y-41471772D02*
X159762828Y-41471772D01*
X159863843Y-41505444D01*
X160032202Y-41673803D01*
X160065874Y-41774818D01*
X160065874Y-41842161D01*
X160032202Y-41943177D01*
X159964858Y-42010520D01*
X159830171Y-42077864D01*
X159022049Y-42077864D01*
X159459782Y-42515596D01*
X150762286Y-40023887D02*
X150189866Y-40596307D01*
X150156195Y-40697322D01*
X150156195Y-40764665D01*
X150189866Y-40865681D01*
X150324553Y-41000368D01*
X150425569Y-41034039D01*
X150492912Y-41034039D01*
X150593927Y-41000368D01*
X151166347Y-40427948D01*
X151435721Y-40697322D02*
X151873454Y-41135055D01*
X151368378Y-41168726D01*
X151469393Y-41269742D01*
X151503065Y-41370757D01*
X151503065Y-41438100D01*
X151469393Y-41539116D01*
X151301034Y-41707474D01*
X151200019Y-41741146D01*
X151132675Y-41741146D01*
X151031660Y-41707474D01*
X150829630Y-41505444D01*
X150795958Y-41404429D01*
X150795958Y-41337085D01*
X151839782Y-42515596D02*
X151435721Y-42111535D01*
X151637752Y-42313566D02*
X152344858Y-41606459D01*
X152176500Y-41640131D01*
X152041813Y-41640131D01*
X151940797Y-41606459D01*
X143142286Y-40023887D02*
X142569866Y-40596307D01*
X142536195Y-40697322D01*
X142536195Y-40764665D01*
X142569866Y-40865681D01*
X142704553Y-41000368D01*
X142805569Y-41034039D01*
X142872912Y-41034039D01*
X142973927Y-41000368D01*
X143546347Y-40427948D01*
X143815721Y-40697322D02*
X144253454Y-41135055D01*
X143748378Y-41168726D01*
X143849393Y-41269742D01*
X143883065Y-41370757D01*
X143883065Y-41438100D01*
X143849393Y-41539116D01*
X143681034Y-41707474D01*
X143580019Y-41741146D01*
X143512675Y-41741146D01*
X143411660Y-41707474D01*
X143209630Y-41505444D01*
X143175958Y-41404429D01*
X143175958Y-41337085D01*
X144691187Y-41572787D02*
X144758530Y-41640131D01*
X144792202Y-41741146D01*
X144792202Y-41808490D01*
X144758530Y-41909505D01*
X144657515Y-42077864D01*
X144489156Y-42246222D01*
X144320797Y-42347238D01*
X144219782Y-42380909D01*
X144152439Y-42380909D01*
X144051423Y-42347238D01*
X143984080Y-42279894D01*
X143950408Y-42178879D01*
X143950408Y-42111535D01*
X143984080Y-42010520D01*
X144085095Y-41842161D01*
X144253454Y-41673803D01*
X144421813Y-41572787D01*
X144522828Y-41539116D01*
X144590171Y-41539116D01*
X144691187Y-41572787D01*
X135522286Y-40023887D02*
X134949866Y-40596307D01*
X134916195Y-40697322D01*
X134916195Y-40764665D01*
X134949866Y-40865681D01*
X135084553Y-41000368D01*
X135185569Y-41034039D01*
X135252912Y-41034039D01*
X135353927Y-41000368D01*
X135926347Y-40427948D01*
X136162049Y-40798337D02*
X136229393Y-40798337D01*
X136330408Y-40832009D01*
X136498767Y-41000368D01*
X136532439Y-41101383D01*
X136532439Y-41168726D01*
X136498767Y-41269742D01*
X136431423Y-41337085D01*
X136296736Y-41404429D01*
X135488614Y-41404429D01*
X135926347Y-41842161D01*
X136263065Y-42178879D02*
X136397752Y-42313566D01*
X136498767Y-42347238D01*
X136566110Y-42347238D01*
X136734469Y-42313566D01*
X136902828Y-42212551D01*
X137172202Y-41943177D01*
X137205874Y-41842161D01*
X137205874Y-41774818D01*
X137172202Y-41673803D01*
X137037515Y-41539116D01*
X136936500Y-41505444D01*
X136869156Y-41505444D01*
X136768141Y-41539116D01*
X136599782Y-41707474D01*
X136566110Y-41808490D01*
X136566110Y-41875833D01*
X136599782Y-41976848D01*
X136734469Y-42111535D01*
X136835484Y-42145207D01*
X136902828Y-42145207D01*
X137003843Y-42111535D01*
X120282286Y-40023887D02*
X119709866Y-40596307D01*
X119676195Y-40697322D01*
X119676195Y-40764665D01*
X119709866Y-40865681D01*
X119844553Y-41000368D01*
X119945569Y-41034039D01*
X120012912Y-41034039D01*
X120113927Y-41000368D01*
X120686347Y-40427948D01*
X120922049Y-40798337D02*
X120989393Y-40798337D01*
X121090408Y-40832009D01*
X121258767Y-41000368D01*
X121292439Y-41101383D01*
X121292439Y-41168726D01*
X121258767Y-41269742D01*
X121191423Y-41337085D01*
X121056736Y-41404429D01*
X120248614Y-41404429D01*
X120686347Y-41842161D01*
X121629156Y-41370757D02*
X122100561Y-41842161D01*
X121090408Y-42246222D01*
X112662286Y-40023887D02*
X112089866Y-40596307D01*
X112056195Y-40697322D01*
X112056195Y-40764665D01*
X112089866Y-40865681D01*
X112224553Y-41000368D01*
X112325569Y-41034039D01*
X112392912Y-41034039D01*
X112493927Y-41000368D01*
X113066347Y-40427948D01*
X113302049Y-40798337D02*
X113369393Y-40798337D01*
X113470408Y-40832009D01*
X113638767Y-41000368D01*
X113672439Y-41101383D01*
X113672439Y-41168726D01*
X113638767Y-41269742D01*
X113571423Y-41337085D01*
X113436736Y-41404429D01*
X112628614Y-41404429D01*
X113066347Y-41842161D01*
X114379545Y-41741146D02*
X114244858Y-41606459D01*
X114143843Y-41572787D01*
X114076500Y-41572787D01*
X113908141Y-41606459D01*
X113739782Y-41707474D01*
X113470408Y-41976848D01*
X113436736Y-42077864D01*
X113436736Y-42145207D01*
X113470408Y-42246222D01*
X113605095Y-42380909D01*
X113706110Y-42414581D01*
X113773454Y-42414581D01*
X113874469Y-42380909D01*
X114042828Y-42212551D01*
X114076500Y-42111535D01*
X114076500Y-42044192D01*
X114042828Y-41943177D01*
X113908141Y-41808490D01*
X113807126Y-41774818D01*
X113739782Y-41774818D01*
X113638767Y-41808490D01*
X105042286Y-40023887D02*
X104469866Y-40596307D01*
X104436195Y-40697322D01*
X104436195Y-40764665D01*
X104469866Y-40865681D01*
X104604553Y-41000368D01*
X104705569Y-41034039D01*
X104772912Y-41034039D01*
X104873927Y-41000368D01*
X105446347Y-40427948D01*
X105682049Y-40798337D02*
X105749393Y-40798337D01*
X105850408Y-40832009D01*
X106018767Y-41000368D01*
X106052439Y-41101383D01*
X106052439Y-41168726D01*
X106018767Y-41269742D01*
X105951423Y-41337085D01*
X105816736Y-41404429D01*
X105008614Y-41404429D01*
X105446347Y-41842161D01*
X106793217Y-41774818D02*
X106456500Y-41438100D01*
X106086110Y-41741146D01*
X106153454Y-41741146D01*
X106254469Y-41774818D01*
X106422828Y-41943177D01*
X106456500Y-42044192D01*
X106456500Y-42111535D01*
X106422828Y-42212551D01*
X106254469Y-42380909D01*
X106153454Y-42414581D01*
X106086110Y-42414581D01*
X105985095Y-42380909D01*
X105816736Y-42212551D01*
X105783065Y-42111535D01*
X105783065Y-42044192D01*
X158382286Y-32403887D02*
X157809866Y-32976307D01*
X157776195Y-33077322D01*
X157776195Y-33144665D01*
X157809866Y-33245681D01*
X157944553Y-33380368D01*
X158045569Y-33414039D01*
X158112912Y-33414039D01*
X158213927Y-33380368D01*
X158786347Y-32807948D01*
X159022049Y-33178337D02*
X159089393Y-33178337D01*
X159190408Y-33212009D01*
X159358767Y-33380368D01*
X159392439Y-33481383D01*
X159392439Y-33548726D01*
X159358767Y-33649742D01*
X159291423Y-33717085D01*
X159156736Y-33784429D01*
X158348614Y-33784429D01*
X158786347Y-34222161D01*
X159863843Y-34356848D02*
X159392439Y-34828253D01*
X159964858Y-33919116D02*
X159291423Y-34255833D01*
X159729156Y-34693566D01*
X150762286Y-32403887D02*
X150189866Y-32976307D01*
X150156195Y-33077322D01*
X150156195Y-33144665D01*
X150189866Y-33245681D01*
X150324553Y-33380368D01*
X150425569Y-33414039D01*
X150492912Y-33414039D01*
X150593927Y-33380368D01*
X151166347Y-32807948D01*
X151402049Y-33178337D02*
X151469393Y-33178337D01*
X151570408Y-33212009D01*
X151738767Y-33380368D01*
X151772439Y-33481383D01*
X151772439Y-33548726D01*
X151738767Y-33649742D01*
X151671423Y-33717085D01*
X151536736Y-33784429D01*
X150728614Y-33784429D01*
X151166347Y-34222161D01*
X152109156Y-33750757D02*
X152546889Y-34188490D01*
X152041813Y-34222161D01*
X152142828Y-34323177D01*
X152176500Y-34424192D01*
X152176500Y-34491535D01*
X152142828Y-34592551D01*
X151974469Y-34760909D01*
X151873454Y-34794581D01*
X151806110Y-34794581D01*
X151705095Y-34760909D01*
X151503065Y-34558879D01*
X151469393Y-34457864D01*
X151469393Y-34390520D01*
X143142286Y-32403887D02*
X142569866Y-32976307D01*
X142536195Y-33077322D01*
X142536195Y-33144665D01*
X142569866Y-33245681D01*
X142704553Y-33380368D01*
X142805569Y-33414039D01*
X142872912Y-33414039D01*
X142973927Y-33380368D01*
X143546347Y-32807948D01*
X143782049Y-33178337D02*
X143849393Y-33178337D01*
X143950408Y-33212009D01*
X144118767Y-33380368D01*
X144152439Y-33481383D01*
X144152439Y-33548726D01*
X144118767Y-33649742D01*
X144051423Y-33717085D01*
X143916736Y-33784429D01*
X143108614Y-33784429D01*
X143546347Y-34222161D01*
X144455484Y-33851772D02*
X144522828Y-33851772D01*
X144623843Y-33885444D01*
X144792202Y-34053803D01*
X144825874Y-34154818D01*
X144825874Y-34222161D01*
X144792202Y-34323177D01*
X144724858Y-34390520D01*
X144590171Y-34457864D01*
X143782049Y-34457864D01*
X144219782Y-34895596D01*
X135522286Y-32403887D02*
X134949866Y-32976307D01*
X134916195Y-33077322D01*
X134916195Y-33144665D01*
X134949866Y-33245681D01*
X135084553Y-33380368D01*
X135185569Y-33414039D01*
X135252912Y-33414039D01*
X135353927Y-33380368D01*
X135926347Y-32807948D01*
X136162049Y-33178337D02*
X136229393Y-33178337D01*
X136330408Y-33212009D01*
X136498767Y-33380368D01*
X136532439Y-33481383D01*
X136532439Y-33548726D01*
X136498767Y-33649742D01*
X136431423Y-33717085D01*
X136296736Y-33784429D01*
X135488614Y-33784429D01*
X135926347Y-34222161D01*
X136599782Y-34895596D02*
X136195721Y-34491535D01*
X136397752Y-34693566D02*
X137104858Y-33986459D01*
X136936500Y-34020131D01*
X136801813Y-34020131D01*
X136700797Y-33986459D01*
X127902286Y-32403887D02*
X127329866Y-32976307D01*
X127296195Y-33077322D01*
X127296195Y-33144665D01*
X127329866Y-33245681D01*
X127464553Y-33380368D01*
X127565569Y-33414039D01*
X127632912Y-33414039D01*
X127733927Y-33380368D01*
X128306347Y-32807948D01*
X128542049Y-33178337D02*
X128609393Y-33178337D01*
X128710408Y-33212009D01*
X128878767Y-33380368D01*
X128912439Y-33481383D01*
X128912439Y-33548726D01*
X128878767Y-33649742D01*
X128811423Y-33717085D01*
X128676736Y-33784429D01*
X127868614Y-33784429D01*
X128306347Y-34222161D01*
X129451187Y-33952787D02*
X129518530Y-34020131D01*
X129552202Y-34121146D01*
X129552202Y-34188490D01*
X129518530Y-34289505D01*
X129417515Y-34457864D01*
X129249156Y-34626222D01*
X129080797Y-34727238D01*
X128979782Y-34760909D01*
X128912439Y-34760909D01*
X128811423Y-34727238D01*
X128744080Y-34659894D01*
X128710408Y-34558879D01*
X128710408Y-34491535D01*
X128744080Y-34390520D01*
X128845095Y-34222161D01*
X129013454Y-34053803D01*
X129181813Y-33952787D01*
X129282828Y-33919116D01*
X129350171Y-33919116D01*
X129451187Y-33952787D01*
X120282286Y-32403887D02*
X119709866Y-32976307D01*
X119676195Y-33077322D01*
X119676195Y-33144665D01*
X119709866Y-33245681D01*
X119844553Y-33380368D01*
X119945569Y-33414039D01*
X120012912Y-33414039D01*
X120113927Y-33380368D01*
X120686347Y-32807948D01*
X120686347Y-34222161D02*
X120282286Y-33818100D01*
X120484317Y-34020131D02*
X121191423Y-33313024D01*
X121023065Y-33346696D01*
X120888378Y-33346696D01*
X120787362Y-33313024D01*
X121023065Y-34558879D02*
X121157752Y-34693566D01*
X121258767Y-34727238D01*
X121326110Y-34727238D01*
X121494469Y-34693566D01*
X121662828Y-34592551D01*
X121932202Y-34323177D01*
X121965874Y-34222161D01*
X121965874Y-34154818D01*
X121932202Y-34053803D01*
X121797515Y-33919116D01*
X121696500Y-33885444D01*
X121629156Y-33885444D01*
X121528141Y-33919116D01*
X121359782Y-34087474D01*
X121326110Y-34188490D01*
X121326110Y-34255833D01*
X121359782Y-34356848D01*
X121494469Y-34491535D01*
X121595484Y-34525207D01*
X121662828Y-34525207D01*
X121763843Y-34491535D01*
X112662286Y-32403887D02*
X112089866Y-32976307D01*
X112056195Y-33077322D01*
X112056195Y-33144665D01*
X112089866Y-33245681D01*
X112224553Y-33380368D01*
X112325569Y-33414039D01*
X112392912Y-33414039D01*
X112493927Y-33380368D01*
X113066347Y-32807948D01*
X113066347Y-34222161D02*
X112662286Y-33818100D01*
X112864317Y-34020131D02*
X113571423Y-33313024D01*
X113403065Y-33346696D01*
X113268378Y-33346696D01*
X113167362Y-33313024D01*
X113874469Y-34222161D02*
X113840797Y-34121146D01*
X113840797Y-34053803D01*
X113874469Y-33952787D01*
X113908141Y-33919116D01*
X114009156Y-33885444D01*
X114076500Y-33885444D01*
X114177515Y-33919116D01*
X114312202Y-34053803D01*
X114345874Y-34154818D01*
X114345874Y-34222161D01*
X114312202Y-34323177D01*
X114278530Y-34356848D01*
X114177515Y-34390520D01*
X114110171Y-34390520D01*
X114009156Y-34356848D01*
X113874469Y-34222161D01*
X113773454Y-34188490D01*
X113706110Y-34188490D01*
X113605095Y-34222161D01*
X113470408Y-34356848D01*
X113436736Y-34457864D01*
X113436736Y-34525207D01*
X113470408Y-34626222D01*
X113605095Y-34760909D01*
X113706110Y-34794581D01*
X113773454Y-34794581D01*
X113874469Y-34760909D01*
X114009156Y-34626222D01*
X114042828Y-34525207D01*
X114042828Y-34457864D01*
X114009156Y-34356848D01*
X105042286Y-32403887D02*
X104469866Y-32976307D01*
X104436195Y-33077322D01*
X104436195Y-33144665D01*
X104469866Y-33245681D01*
X104604553Y-33380368D01*
X104705569Y-33414039D01*
X104772912Y-33414039D01*
X104873927Y-33380368D01*
X105446347Y-32807948D01*
X105446347Y-34222161D02*
X105042286Y-33818100D01*
X105244317Y-34020131D02*
X105951423Y-33313024D01*
X105783065Y-33346696D01*
X105648378Y-33346696D01*
X105547362Y-33313024D01*
X106389156Y-33750757D02*
X106860561Y-34222161D01*
X105850408Y-34626222D01*
X158382286Y-24783887D02*
X157809866Y-25356307D01*
X157776195Y-25457322D01*
X157776195Y-25524665D01*
X157809866Y-25625681D01*
X157944553Y-25760368D01*
X158045569Y-25794039D01*
X158112912Y-25794039D01*
X158213927Y-25760368D01*
X158786347Y-25187948D01*
X158786347Y-26602161D02*
X158382286Y-26198100D01*
X158584317Y-26400131D02*
X159291423Y-25693024D01*
X159123065Y-25726696D01*
X158988378Y-25726696D01*
X158887362Y-25693024D01*
X160099545Y-26501146D02*
X159964858Y-26366459D01*
X159863843Y-26332787D01*
X159796500Y-26332787D01*
X159628141Y-26366459D01*
X159459782Y-26467474D01*
X159190408Y-26736848D01*
X159156736Y-26837864D01*
X159156736Y-26905207D01*
X159190408Y-27006222D01*
X159325095Y-27140909D01*
X159426110Y-27174581D01*
X159493454Y-27174581D01*
X159594469Y-27140909D01*
X159762828Y-26972551D01*
X159796500Y-26871535D01*
X159796500Y-26804192D01*
X159762828Y-26703177D01*
X159628141Y-26568490D01*
X159527126Y-26534818D01*
X159459782Y-26534818D01*
X159358767Y-26568490D01*
X150762286Y-24783887D02*
X150189866Y-25356307D01*
X150156195Y-25457322D01*
X150156195Y-25524665D01*
X150189866Y-25625681D01*
X150324553Y-25760368D01*
X150425569Y-25794039D01*
X150492912Y-25794039D01*
X150593927Y-25760368D01*
X151166347Y-25187948D01*
X151166347Y-26602161D02*
X150762286Y-26198100D01*
X150964317Y-26400131D02*
X151671423Y-25693024D01*
X151503065Y-25726696D01*
X151368378Y-25726696D01*
X151267362Y-25693024D01*
X152513217Y-26534818D02*
X152176500Y-26198100D01*
X151806110Y-26501146D01*
X151873454Y-26501146D01*
X151974469Y-26534818D01*
X152142828Y-26703177D01*
X152176500Y-26804192D01*
X152176500Y-26871535D01*
X152142828Y-26972551D01*
X151974469Y-27140909D01*
X151873454Y-27174581D01*
X151806110Y-27174581D01*
X151705095Y-27140909D01*
X151536736Y-26972551D01*
X151503065Y-26871535D01*
X151503065Y-26804192D01*
X143142286Y-24783887D02*
X142569866Y-25356307D01*
X142536195Y-25457322D01*
X142536195Y-25524665D01*
X142569866Y-25625681D01*
X142704553Y-25760368D01*
X142805569Y-25794039D01*
X142872912Y-25794039D01*
X142973927Y-25760368D01*
X143546347Y-25187948D01*
X143546347Y-26602161D02*
X143142286Y-26198100D01*
X143344317Y-26400131D02*
X144051423Y-25693024D01*
X143883065Y-25726696D01*
X143748378Y-25726696D01*
X143647362Y-25693024D01*
X144623843Y-26736848D02*
X144152439Y-27208253D01*
X144724858Y-26299116D02*
X144051423Y-26635833D01*
X144489156Y-27073566D01*
X135522286Y-24783887D02*
X134949866Y-25356307D01*
X134916195Y-25457322D01*
X134916195Y-25524665D01*
X134949866Y-25625681D01*
X135084553Y-25760368D01*
X135185569Y-25794039D01*
X135252912Y-25794039D01*
X135353927Y-25760368D01*
X135926347Y-25187948D01*
X135926347Y-26602161D02*
X135522286Y-26198100D01*
X135724317Y-26400131D02*
X136431423Y-25693024D01*
X136263065Y-25726696D01*
X136128378Y-25726696D01*
X136027362Y-25693024D01*
X136869156Y-26130757D02*
X137306889Y-26568490D01*
X136801813Y-26602161D01*
X136902828Y-26703177D01*
X136936500Y-26804192D01*
X136936500Y-26871535D01*
X136902828Y-26972551D01*
X136734469Y-27140909D01*
X136633454Y-27174581D01*
X136566110Y-27174581D01*
X136465095Y-27140909D01*
X136263065Y-26938879D01*
X136229393Y-26837864D01*
X136229393Y-26770520D01*
X127902286Y-24783887D02*
X127329866Y-25356307D01*
X127296195Y-25457322D01*
X127296195Y-25524665D01*
X127329866Y-25625681D01*
X127464553Y-25760368D01*
X127565569Y-25794039D01*
X127632912Y-25794039D01*
X127733927Y-25760368D01*
X128306347Y-25187948D01*
X128306347Y-26602161D02*
X127902286Y-26198100D01*
X128104317Y-26400131D02*
X128811423Y-25693024D01*
X128643065Y-25726696D01*
X128508378Y-25726696D01*
X128407362Y-25693024D01*
X129215484Y-26231772D02*
X129282828Y-26231772D01*
X129383843Y-26265444D01*
X129552202Y-26433803D01*
X129585874Y-26534818D01*
X129585874Y-26602161D01*
X129552202Y-26703177D01*
X129484858Y-26770520D01*
X129350171Y-26837864D01*
X128542049Y-26837864D01*
X128979782Y-27275596D01*
X120282286Y-24783887D02*
X119709866Y-25356307D01*
X119676195Y-25457322D01*
X119676195Y-25524665D01*
X119709866Y-25625681D01*
X119844553Y-25760368D01*
X119945569Y-25794039D01*
X120012912Y-25794039D01*
X120113927Y-25760368D01*
X120686347Y-25187948D01*
X120686347Y-26602161D02*
X120282286Y-26198100D01*
X120484317Y-26400131D02*
X121191423Y-25693024D01*
X121023065Y-25726696D01*
X120888378Y-25726696D01*
X120787362Y-25693024D01*
X121359782Y-27275596D02*
X120955721Y-26871535D01*
X121157752Y-27073566D02*
X121864858Y-26366459D01*
X121696500Y-26400131D01*
X121561813Y-26400131D01*
X121460797Y-26366459D01*
X112662286Y-24783887D02*
X112089866Y-25356307D01*
X112056195Y-25457322D01*
X112056195Y-25524665D01*
X112089866Y-25625681D01*
X112224553Y-25760368D01*
X112325569Y-25794039D01*
X112392912Y-25794039D01*
X112493927Y-25760368D01*
X113066347Y-25187948D01*
X113066347Y-26602161D02*
X112662286Y-26198100D01*
X112864317Y-26400131D02*
X113571423Y-25693024D01*
X113403065Y-25726696D01*
X113268378Y-25726696D01*
X113167362Y-25693024D01*
X114211187Y-26332787D02*
X114278530Y-26400131D01*
X114312202Y-26501146D01*
X114312202Y-26568490D01*
X114278530Y-26669505D01*
X114177515Y-26837864D01*
X114009156Y-27006222D01*
X113840797Y-27107238D01*
X113739782Y-27140909D01*
X113672439Y-27140909D01*
X113571423Y-27107238D01*
X113504080Y-27039894D01*
X113470408Y-26938879D01*
X113470408Y-26871535D01*
X113504080Y-26770520D01*
X113605095Y-26602161D01*
X113773454Y-26433803D01*
X113941813Y-26332787D01*
X114042828Y-26299116D01*
X114110171Y-26299116D01*
X114211187Y-26332787D01*
X105379004Y-25120604D02*
X104806584Y-25693024D01*
X104772912Y-25794039D01*
X104772912Y-25861383D01*
X104806584Y-25962398D01*
X104941271Y-26097085D01*
X105042286Y-26130757D01*
X105109630Y-26130757D01*
X105210645Y-26097085D01*
X105783065Y-25524665D01*
X105446347Y-26602161D02*
X105581034Y-26736848D01*
X105682049Y-26770520D01*
X105749393Y-26770520D01*
X105917752Y-26736848D01*
X106086110Y-26635833D01*
X106355484Y-26366459D01*
X106389156Y-26265444D01*
X106389156Y-26198100D01*
X106355484Y-26097085D01*
X106220797Y-25962398D01*
X106119782Y-25928726D01*
X106052439Y-25928726D01*
X105951423Y-25962398D01*
X105783065Y-26130757D01*
X105749393Y-26231772D01*
X105749393Y-26299116D01*
X105783065Y-26400131D01*
X105917752Y-26534818D01*
X106018767Y-26568490D01*
X106086110Y-26568490D01*
X106187126Y-26534818D01*
X158719004Y-17500604D02*
X158146584Y-18073024D01*
X158112912Y-18174039D01*
X158112912Y-18241383D01*
X158146584Y-18342398D01*
X158281271Y-18477085D01*
X158382286Y-18510757D01*
X158449630Y-18510757D01*
X158550645Y-18477085D01*
X159123065Y-17904665D01*
X159257752Y-18645444D02*
X159224080Y-18544429D01*
X159224080Y-18477085D01*
X159257752Y-18376070D01*
X159291423Y-18342398D01*
X159392439Y-18308726D01*
X159459782Y-18308726D01*
X159560797Y-18342398D01*
X159695484Y-18477085D01*
X159729156Y-18578100D01*
X159729156Y-18645444D01*
X159695484Y-18746459D01*
X159661813Y-18780131D01*
X159560797Y-18813803D01*
X159493454Y-18813803D01*
X159392439Y-18780131D01*
X159257752Y-18645444D01*
X159156736Y-18611772D01*
X159089393Y-18611772D01*
X158988378Y-18645444D01*
X158853691Y-18780131D01*
X158820019Y-18881146D01*
X158820019Y-18948490D01*
X158853691Y-19049505D01*
X158988378Y-19184192D01*
X159089393Y-19217864D01*
X159156736Y-19217864D01*
X159257752Y-19184192D01*
X159392439Y-19049505D01*
X159426110Y-18948490D01*
X159426110Y-18881146D01*
X159392439Y-18780131D01*
X151099004Y-17500604D02*
X150526584Y-18073024D01*
X150492912Y-18174039D01*
X150492912Y-18241383D01*
X150526584Y-18342398D01*
X150661271Y-18477085D01*
X150762286Y-18510757D01*
X150829630Y-18510757D01*
X150930645Y-18477085D01*
X151503065Y-17904665D01*
X151772439Y-18174039D02*
X152243843Y-18645444D01*
X151233691Y-19049505D01*
X143479004Y-17500604D02*
X142906584Y-18073024D01*
X142872912Y-18174039D01*
X142872912Y-18241383D01*
X142906584Y-18342398D01*
X143041271Y-18477085D01*
X143142286Y-18510757D01*
X143209630Y-18510757D01*
X143310645Y-18477085D01*
X143883065Y-17904665D01*
X144522828Y-18544429D02*
X144388141Y-18409742D01*
X144287126Y-18376070D01*
X144219782Y-18376070D01*
X144051423Y-18409742D01*
X143883065Y-18510757D01*
X143613691Y-18780131D01*
X143580019Y-18881146D01*
X143580019Y-18948490D01*
X143613691Y-19049505D01*
X143748378Y-19184192D01*
X143849393Y-19217864D01*
X143916736Y-19217864D01*
X144017752Y-19184192D01*
X144186110Y-19015833D01*
X144219782Y-18914818D01*
X144219782Y-18847474D01*
X144186110Y-18746459D01*
X144051423Y-18611772D01*
X143950408Y-18578100D01*
X143883065Y-18578100D01*
X143782049Y-18611772D01*
X135859004Y-17500604D02*
X135286584Y-18073024D01*
X135252912Y-18174039D01*
X135252912Y-18241383D01*
X135286584Y-18342398D01*
X135421271Y-18477085D01*
X135522286Y-18510757D01*
X135589630Y-18510757D01*
X135690645Y-18477085D01*
X136263065Y-17904665D01*
X136936500Y-18578100D02*
X136599782Y-18241383D01*
X136229393Y-18544429D01*
X136296736Y-18544429D01*
X136397752Y-18578100D01*
X136566110Y-18746459D01*
X136599782Y-18847474D01*
X136599782Y-18914818D01*
X136566110Y-19015833D01*
X136397752Y-19184192D01*
X136296736Y-19217864D01*
X136229393Y-19217864D01*
X136128378Y-19184192D01*
X135960019Y-19015833D01*
X135926347Y-18914818D01*
X135926347Y-18847474D01*
X128239004Y-17500604D02*
X127666584Y-18073024D01*
X127632912Y-18174039D01*
X127632912Y-18241383D01*
X127666584Y-18342398D01*
X127801271Y-18477085D01*
X127902286Y-18510757D01*
X127969630Y-18510757D01*
X128070645Y-18477085D01*
X128643065Y-17904665D01*
X129047126Y-18780131D02*
X128575721Y-19251535D01*
X129148141Y-18342398D02*
X128474706Y-18679116D01*
X128912439Y-19116848D01*
X120619004Y-17500604D02*
X120046584Y-18073024D01*
X120012912Y-18174039D01*
X120012912Y-18241383D01*
X120046584Y-18342398D01*
X120181271Y-18477085D01*
X120282286Y-18510757D01*
X120349630Y-18510757D01*
X120450645Y-18477085D01*
X121023065Y-17904665D01*
X121292439Y-18174039D02*
X121730171Y-18611772D01*
X121225095Y-18645444D01*
X121326110Y-18746459D01*
X121359782Y-18847474D01*
X121359782Y-18914818D01*
X121326110Y-19015833D01*
X121157752Y-19184192D01*
X121056736Y-19217864D01*
X120989393Y-19217864D01*
X120888378Y-19184192D01*
X120686347Y-18982161D01*
X120652675Y-18881146D01*
X120652675Y-18813803D01*
X112999004Y-17500604D02*
X112426584Y-18073024D01*
X112392912Y-18174039D01*
X112392912Y-18241383D01*
X112426584Y-18342398D01*
X112561271Y-18477085D01*
X112662286Y-18510757D01*
X112729630Y-18510757D01*
X112830645Y-18477085D01*
X113403065Y-17904665D01*
X113638767Y-18275055D02*
X113706110Y-18275055D01*
X113807126Y-18308726D01*
X113975484Y-18477085D01*
X114009156Y-18578100D01*
X114009156Y-18645444D01*
X113975484Y-18746459D01*
X113908141Y-18813803D01*
X113773454Y-18881146D01*
X112965332Y-18881146D01*
X113403065Y-19318879D01*
X105379004Y-17500604D02*
X104806584Y-18073024D01*
X104772912Y-18174039D01*
X104772912Y-18241383D01*
X104806584Y-18342398D01*
X104941271Y-18477085D01*
X105042286Y-18510757D01*
X105109630Y-18510757D01*
X105210645Y-18477085D01*
X105783065Y-17904665D01*
X105783065Y-19318879D02*
X105379004Y-18914818D01*
X105581034Y-19116848D02*
X106288141Y-18409742D01*
X106119782Y-18443413D01*
X105985095Y-18443413D01*
X105884080Y-18409742D01*
M02*
